<svg xmlns="http://www.w3.org/2000/svg" viewBox="0 0 50 50">
    <path d="M 31.09375 2 C 30.79375 2 30.60625 2.0875 30.40625 2.1875 C 30.20625 2.3875 28.7875 3.6875 28.1875 5.1875 C 24.6875 6.7875 15.6875 12.09375 14.1875 23.59375 C 14.4875 23.69375 14.8 23.9 15 24 C 15.3 23.8 15.8125 23.60625 16.3125 23.40625 C 17.680112 14.562359 23.82802 9.9219788 27.5625 7.875 C 27.477558 9.861364 27.852778 13.736111 31.3125 16.3125 C 33.0125 17.5125 35.00625 18 36.90625 18 C 39.10625 18 41.1 17.4125 42.5 16.8125 C 42.7 16.6125 42.9 16.39375 43 16.09375 C 43 15.79375 43.0125 15.5125 42.8125 15.3125 C 42.4125 14.7125 41.99375 13.9875 41.59375 13.1875 C 40.69375 11.4875 39.6 9.4875 37.5 8.1875 C 35.394133 6.9034349 33.180063 6.3405957 31.5 6.0625 C 32.23828 5.4304696 32.922923 4.8031154 33.1875 4.40625 C 33.3875 4.10625 33.39375 3.6125 33.09375 3.3125 C 32.19375 2.1125 31.19375 2 31.09375 2 z M 26.3125 12.5 C 25.7125 17.2 26.4125 21.7125 27.3125 24.8125 L 27.6875 24.8125 L 28.09375 24.8125 C 28.29375 24.5125 28.69375 24.09375 29.09375 23.59375 C 28.49375 21.49375 28.09375 18.8125 28.09375 15.8125 C 27.19375 14.7125 26.6125 13.6 26.3125 12.5 z M 35.3125 23 C 33.960205 23.091675 32.8125 23.46875 32.09375 23.8125 C 30.69375 24.5125 30 25.4875 29.5 26.1875 C 29.4 26.3875 29.19375 26.6875 29.09375 26.6875 L 28.40625 26.6875 L 27.1875 26.6875 C 28.7875 28.5875 30 31.19375 30 35.09375 C 30 39.19375 28.10625 42.80625 25.40625 45.40625 C 27.60625 47.00625 30.20625 47.90625 32.90625 47.90625 C 34.90625 47.90625 36.9125 47.4 38.8125 46.5 C 44.3125 43.9 48.1125 35.79375 44.8125 29.09375 C 42.26875 23.86875 38.287549 22.798315 35.3125 23 z M 11 25 C 8.9 25 2 25.6875 2 35.1875 C 2 42.0875 8 48 15 48 C 21.1 48 27.99375 42.4875 28.09375 35.1875 C 28.09375 26.7875 21.59375 25 19.09375 25 C 17.49375 25 16.3875 25.6 15.6875 26 C 15.4875 26.1 15.19375 26.3125 15.09375 26.3125 C 14.99375 26.3125 14.60625 26.1 14.40625 26 C 13.60625 25.6 12.5 25 11 25 z" fill="#ffffff"/>
</svg>