<svg xmlns="http://www.w3.org/2000/svg" xmlns:xlink="http://www.w3.org/1999/xlink" fill="#ffffff" height="800px" width="800px" version="1.1" id="Layer_1" viewBox="0 0 512 512" xml:space="preserve">
<g>
	<g>
		<path d="M33.391,155.826C14.984,155.826,0,170.793,0,189.217v133.565c0,18.424,14.984,33.391,33.391,33.391    c18.408,0,33.391-14.967,33.391-33.391V189.217C66.783,170.793,51.799,155.826,33.391,155.826z" fill="#ffffff"/>
	</g>
</g>
<g>
	<g>
		<path d="M478.609,55.652c-18.424,0-33.391,14.967-33.391,33.391v333.913c0,18.424,14.967,33.391,33.391,33.391    c18.424,0,33.391-14.967,33.391-33.391V89.044C512,70.619,497.033,55.652,478.609,55.652z" fill="#ffffff"/>
	</g>
</g>
<g>
	<g>
		<path d="M100.174,183.489v145.023l33.391,10.017v29.548c0,22.272,14.348,41.543,35.706,47.934l100.174,30.066    c14.801,4.53,31.164,1.972,44.282-7.794c12.677-9.417,19.967-23.89,20.126-39.667l77.972,20.052V93.332L100.174,183.489z     M300.522,398.108c0,10.833-10.301,19.238-21.49,16.011l-100.174-30.066c-7.109-2.153-11.902-8.576-11.902-15.978v-19.531    l133.565,40.07V398.108z" fill="#ffffff"/>
	</g>
</g>
</svg>