<svg width="500" height="85" viewBox="0 0 500 85" fill="none" xmlns="http://www.w3.org/2000/svg">
<g clip-path="url(#clip0_721_21487)">
<path d="M152.501 0.698947C153.36 0.16119 154.353 -0.124023 155.366 -0.124023C156.38 -0.124023 157.373 0.161189 158.232 0.698947C159.087 1.23486 159.775 1.99998 160.217 2.90719L161.916 6.37687L165.818 6.94217L165.87 6.95117C166.636 7.08249 167.364 7.37733 168.005 7.81555C168.646 8.2538 169.184 8.82508 169.584 9.49026C169.983 10.1555 170.234 10.899 170.32 11.6702C170.344 11.8891 170.355 12.1088 170.352 12.328C170.514 13.0523 170.572 13.7981 170.522 14.5428C170.445 15.6833 170.117 16.7929 169.561 17.7921L169.243 18.3643L166.298 21.0776L166.581 22.737C166.713 23.4574 166.693 24.1975 166.52 24.909L166.586 25.2991L166.587 25.3043C166.755 26.2884 166.646 27.2998 166.273 28.226C165.898 29.1537 165.273 29.959 164.467 30.552C163.661 31.1449 162.705 31.502 161.707 31.5833C160.709 31.6647 159.709 31.467 158.817 31.0125L158.792 30.9997L155.313 29.1657L151.835 30.9997L151.81 31.0125C150.918 31.467 149.917 31.6647 148.92 31.5833C147.922 31.502 146.966 31.1449 146.16 30.552C145.354 29.959 144.729 29.1536 144.354 28.226C143.981 27.3002 143.872 26.2889 144.04 25.305L144.041 25.2991L144.107 24.909C143.934 24.1975 143.913 23.4574 144.046 22.7371L144.341 21.01L141.624 18.3703L141.354 17.9248C140.756 16.9402 140.38 15.8381 140.249 14.6943C140.155 13.861 140.192 13.02 140.359 12.2019C140.362 11.9027 140.391 11.6035 140.444 11.3075C140.577 10.5751 140.86 9.87803 141.276 9.26021C141.691 8.6424 142.231 8.11733 142.859 7.71806C143.488 7.3188 144.193 7.05393 144.929 6.9402L144.948 6.93728L148.796 6.37986L150.52 2.89641C150.963 1.99392 151.648 1.23274 152.501 0.698947Z" fill="white"/>
<path fill-rule="evenodd" clip-rule="evenodd" d="M280.768 23.0508C282.406 21.5326 284.557 20.6889 286.79 20.6889C289.024 20.6889 291.175 21.5326 292.812 23.0508C294.437 24.5574 295.436 26.6175 295.613 28.8235C295.65 29.2144 295.658 29.6073 295.639 29.9991C295.652 30.2748 295.651 30.551 295.636 30.8267C295.675 31.9257 295.509 33.0233 295.144 34.063C294.741 35.2111 294.106 36.264 293.277 37.1556C292.449 38.0473 291.445 38.7585 290.329 39.2449C289.213 39.7313 288.008 39.9823 286.79 39.9823C285.573 39.9823 284.368 39.7313 283.252 39.2449C282.136 38.7585 281.132 38.0473 280.303 37.1556C279.475 36.264 278.839 35.2112 278.437 34.063C278.072 33.0232 277.906 31.9256 277.945 30.8267C277.93 30.551 277.929 30.2748 277.942 29.9991C277.922 29.6073 277.931 29.2144 277.968 28.8235C278.145 26.6175 279.144 24.5574 280.768 23.0508ZM291.552 29.1774L287.488 29.4798C287.474 29.3041 287.395 29.1397 287.266 29.0198C287.137 28.8999 286.967 28.8333 286.79 28.8333C286.614 28.8333 286.444 28.8999 286.315 29.0198C286.185 29.1397 286.106 29.3041 286.093 29.4798L286.089 29.5323L286.084 29.5846V29.5872L286.125 29.9904L286.085 30.3898L286.119 30.7364L286.093 31.0876C286.086 31.1835 286.099 31.2798 286.131 31.3704C286.162 31.4611 286.213 31.5443 286.278 31.6147C286.343 31.6851 286.423 31.7413 286.511 31.7797C286.599 31.8182 286.694 31.838 286.79 31.838C286.887 31.838 286.982 31.8182 287.07 31.7797C287.158 31.7413 287.237 31.6851 287.303 31.6147C287.368 31.5443 287.418 31.4612 287.45 31.3704C287.482 31.2797 287.495 31.1834 287.488 31.0876L287.461 30.7364L287.496 30.3898L287.456 29.9904L287.497 29.5872V29.5846L291.552 29.1774Z" fill="white"/>
<path d="M489.816 46.6785C491.426 17.8174 464.199 9.06685 444.65 26.199C435.917 16.8686 423.385 21.7974 416.842 27.8068C408.928 12.3351 387.162 13.6003 374.631 22.1136C371.731 20.2609 368.434 19.1206 365.008 18.7862C361.583 18.4517 358.127 18.9327 354.923 20.1896C348.776 17.712 336.455 18.819 332.471 23.1943C316.642 9.4095 288.439 22.14 287.859 42.8831C287.41 42.8831 287.015 42.6722 286.54 42.6195C290.286 20.1896 273.085 8.80328 255.25 22.3245C244.249 7.53814 222.193 14.5755 213.408 27.5959C209.424 18.8717 197.261 17.0531 189.294 20.2686C182.171 17.1321 167.37 19.7942 164.732 25.5401C157.028 21.3493 147.188 25.092 142.122 29.2828C134.656 18.7399 115.529 21.5601 107.165 29.6254C100.253 12.7041 76.5091 15.498 65.3493 26.2517C58.3843 -8.93509 6.12074 12.7305 9.44492 41.6707C4.48503 72.4558 38.6767 98.1541 63.5817 75.4869C66.0717 77.7456 69.0518 79.397 72.288 80.3116C75.5243 81.2262 78.9287 81.3791 82.2341 80.7583C88.2756 84.6855 97.3512 85.1863 102.364 79.3878C112.099 87.5585 131.912 81.0219 139.88 75.0125C146.475 83.7894 160.748 83.9475 168.637 77.1474C171.341 78.8934 174.378 80.0617 177.556 80.5788C180.734 81.0958 183.985 80.9506 187.104 80.1521C194.518 84.2375 203.118 80.4684 209.477 75.935C220.927 90.4314 240.45 81.7072 250.923 70.7953C255.408 87.374 284.983 87.4003 296.011 77.6745C300.689 80.7102 306.363 81.8155 311.84 80.7583C318.937 85.529 329.306 84.6592 333.975 76.9629C336.692 78.792 339.768 80.0224 342.997 80.5722C346.227 81.1221 349.537 80.9789 352.707 80.1521C359.83 84.1057 367.771 80.732 374.156 76.6466C385.711 86.715 407.424 83.7103 415.866 72.693C422.251 80.8374 434.756 80.8901 442.961 75.7505C445.451 77.9408 448.411 79.5313 451.612 80.3995C454.814 81.2676 458.172 81.3904 461.429 80.7583C483.247 93.7788 491.689 63.1517 489.816 46.6785Z" fill="#400645"/>
<path d="M489.816 40.3265V39.9311C489.774 36.0751 489.287 32.2368 488.365 28.4921C487.31 23.8006 484.93 19.5102 481.506 16.1306L480.714 15.3926L479.791 14.8391C476.751 12.8261 473.244 11.628 469.607 11.3599C468.816 11.3199 468.024 11.3199 467.233 11.3599C464.452 11.3841 461.682 11.7201 458.975 12.3615H458.843H458.685C453.493 13.6122 448.713 16.1815 444.808 19.8206V19.8206C443.478 18.2341 441.82 16.9535 439.949 16.0665C438.077 15.1794 436.036 14.7068 433.965 14.6809H433.464H432.962C427.28 14.871 421.841 17.0333 417.581 20.7958L417.001 21.3757C416.447 20.4795 415.919 19.5834 415.312 18.7399L414.864 18.081L414.204 17.5012C412.023 15.0192 409.336 13.0302 406.325 11.6668C403.313 10.3033 400.046 9.59671 396.739 9.59401H395.737C391.419 9.65998 387.137 10.3981 383.047 11.7817C379.999 12.5497 377.138 13.921 374.631 15.8143C373.076 14.5769 371.278 13.679 369.354 13.1786H369.09H368.8C366.19 12.6861 363.541 12.4303 360.885 12.4142H359.83L358.775 12.6251C357.418 12.8999 356.099 13.3334 354.844 13.9166C352.183 12.9896 349.378 12.5434 346.56 12.5987H344.264C339.935 12.5705 335.733 14.0632 332.392 16.8159C332.195 16.5665 331.984 16.3289 331.759 16.1042L330.968 15.3662L330.044 14.8127C326.977 12.776 323.43 11.5766 319.755 11.3336C318.964 11.293 318.172 11.293 317.381 11.3336C314.599 11.3593 311.83 11.6952 309.123 12.3352V12.3352H308.991C303.789 13.5793 298.999 16.1492 295.088 19.7942V19.7942L294.929 19.9524C292.79 22.1405 291.167 24.7792 290.18 27.675V27.675C289.253 30.4778 288.556 33.3515 288.096 36.2675C287.648 36.2675 287.252 36.0566 286.777 36.0039C286.777 35.0287 286.777 34.0007 286.777 32.9728C286.832 29.9289 286.718 26.8844 286.434 23.8532C286.297 20.234 284.744 16.8129 282.11 14.3244C279.476 11.8358 275.971 10.4782 272.346 10.5429H272.135C267.783 10.4005 263.455 11.2383 259.471 12.9941C257.919 13.7356 256.515 14.7538 255.329 15.9988C255.118 15.7352 254.96 15.4189 254.722 15.1554L254.327 14.6546L253.878 14.2065C250.671 10.9411 246.535 8.74164 242.033 7.90715H241.531H241.03C240.054 7.90715 239.078 7.90715 238.154 7.90715C234.421 7.84706 230.717 8.57455 227.285 10.0421L226.889 10.0157L226.467 10.2529C222.192 12.579 218.353 15.629 215.122 19.2671C214.516 19.9787 213.988 20.5849 213.539 21.1912C212.611 19.2305 211.254 17.5026 209.57 16.1343C207.885 14.766 205.915 13.792 203.804 13.284H203.541L203.145 13.1786C200.535 12.6861 197.886 12.4303 195.23 12.4142H194.175L193.119 12.6251C191.763 12.8999 190.444 13.3334 189.188 13.9166C186.527 12.9896 183.722 12.5434 180.904 12.5987H178.609C170.905 12.915 166.79 16.1306 164.626 19.188C162.547 17.9885 160.194 17.344 157.793 17.3167H157.292H156.791C151.392 17.5395 146.21 19.4994 142.017 22.9044C141.272 21.7768 140.385 20.7493 139.378 19.8469L138.64 19.2407L137.795 18.7399C134.244 16.8576 130.257 15.9482 126.24 16.1042C123.904 16.141 121.578 16.4237 119.301 16.9477H118.985L118.721 17.1322C115.661 17.8906 112.776 19.2331 110.226 21.0857C109.171 21.7869 108.174 22.5714 107.245 23.4315C106.048 20.7433 104.347 18.3096 102.232 16.2624L101.467 15.5244L100.543 14.9709C97.4731 12.9408 93.9277 11.742 90.2543 11.4917C89.4629 11.4917 88.6714 11.4917 87.8799 11.4917C85.0985 11.5159 82.3286 11.8518 79.6222 12.4933H79.4639H79.332C74.1404 13.7439 69.3602 16.3133 65.4548 19.9524V19.9524C65.1961 18.4864 64.8615 17.0348 64.4523 15.6034L64.294 15.0763L64.083 14.5492C62.4527 10.5282 59.6119 7.1128 55.9536 4.77544C52.2954 2.43808 48.0004 1.29431 43.663 1.50236H42.6604C33.8311 1.97792 25.4722 5.6291 19.1273 11.7817V11.7817C12.9952 18.0947 9.52843 26.5221 9.44493 35.3186V37.9543C9.22887 43.3592 9.85184 48.765 11.2917 53.9795C12.5076 58.8314 14.9829 63.2771 18.4677 66.8681C24.5884 73.8791 33.2947 77.411 44.3225 77.411H44.5072C48.4267 77.2724 52.2884 76.424 55.9044 74.907L57.0652 74.459L58.0414 73.8C60.0551 72.4329 61.9286 70.8703 63.6345 69.1348V69.2666C67.7362 72.8288 73.0003 74.7694 78.435 74.7225C79.6873 74.7295 80.936 74.5879 82.1549 74.3008C84.157 75.5516 86.3623 76.4435 88.6714 76.9365C89.7814 77.175 90.913 77.2987 92.0483 77.3055C94.1488 77.3151 96.227 76.8747 98.1427 76.014L99.3827 75.4605L100.438 74.6171C101.091 74.0967 101.708 73.5332 102.285 72.9303C102.979 73.4733 103.711 73.9665 104.474 74.4063H104.686H104.897C108.304 75.9878 112.037 76.7462 115.793 76.6203C117.875 76.5749 119.95 76.3456 121.992 75.935H122.441L122.863 75.8032C128.916 74.4358 134.665 71.97 139.827 68.5286C141.33 70.5404 143.269 72.1872 145.498 73.3464C147.727 74.5055 150.19 75.1471 152.702 75.2233C153.308 75.2233 153.889 75.2233 154.496 75.2233C157 75.2104 159.491 74.8738 161.909 74.2218C164.446 73.6827 166.768 72.4084 168.584 70.5581C172.508 73.0886 177.106 74.3749 181.775 74.2481H182.25C183.899 74.3337 185.551 74.1828 187.157 73.8C189.156 74.968 191.437 75.5694 193.753 75.5396C197.253 75.4438 200.684 74.5418 203.778 72.9039C205.827 71.9988 207.758 70.8482 209.529 69.4775C211.22 71.6324 213.326 73.4263 215.724 74.7529C218.121 76.0794 220.76 76.9116 223.486 77.2001H224.488H225.491C229.266 77.0218 232.973 76.1273 236.413 74.5644C240.408 72.7413 244.136 70.3825 247.494 67.5534V67.5534C248.681 66.5255 249.789 65.4975 250.791 64.496C251.164 65.7178 251.614 66.915 252.137 68.0805L253.166 70.2682L255.039 71.7969C259.78 75.5464 265.696 77.498 271.739 77.3055C272.847 77.3055 273.955 77.3055 275.063 77.3055C278.725 77.2966 282.38 76.9704 285.986 76.3303C289.882 75.7827 293.474 73.9231 296.169 71.0589C299.792 73.3706 304.006 74.5879 308.305 74.5644C309.558 74.5713 310.806 74.4298 312.025 74.1427C314.025 75.3978 316.231 76.2901 318.542 76.7784C319.651 77.0197 320.783 77.1434 321.919 77.1474C324.01 77.1565 326.08 76.716 327.987 75.8559L329.253 75.3024L330.308 74.459C331.776 73.2724 333.072 71.8887 334.16 70.3473C334.26 70.4415 334.366 70.5295 334.477 70.6108C338.401 73.1413 342.999 74.4276 347.668 74.3008H348.248C349.832 74.2612 351.404 74.004 352.918 73.5365C354.917 74.7044 357.198 75.3058 359.514 75.276C363.014 75.1803 366.445 74.2783 369.539 72.6403C371.236 71.9323 372.854 71.0489 374.367 70.0046C374.356 70.0478 374.356 70.0932 374.367 70.1364L375.528 71.3488L377.031 72.1395C381.888 74.7965 387.324 76.2177 392.861 76.2776H393.494H394.101C401 75.8314 407.619 73.3859 413.149 69.2403L413.835 68.6868L414.415 68.0542C414.969 67.4216 415.444 66.789 415.946 66.1565C417.452 68.0836 419.366 69.6546 421.55 70.7572C423.735 71.8598 426.136 72.4669 428.583 72.5349C429.19 72.5349 429.77 72.5349 430.377 72.5349C432.881 72.522 435.373 72.1853 437.79 71.5333C439.701 71.1216 441.501 70.3035 443.067 69.1348C447.157 72.6578 452.388 74.5778 457.788 74.538C459.041 74.547 460.289 74.4054 461.508 74.1163C463.517 75.3719 465.732 76.2641 468.051 76.7521C469.152 76.9919 470.275 77.1156 471.401 77.121C473.502 77.1306 475.58 76.6902 477.496 75.8295L478.736 75.276L479.817 74.4326C484.351 70.4739 487.379 65.0748 488.392 59.1455V58.8028V58.4602C489.217 53.2722 489.658 48.0305 489.711 42.7777V42.3823C489.698 42.198 489.698 42.0131 489.711 41.8288V41.8288C489.79 41.4071 489.816 40.8536 489.816 40.3265Z" fill="white"/>
<path d="M489.816 43.0412V42.6459C489.774 38.7899 489.287 34.9516 488.365 31.2069C487.31 26.5154 484.93 22.225 481.506 18.8454L480.714 18.1074L479.791 17.5539C476.751 15.5409 473.244 14.3428 469.607 14.0747C468.816 14.0347 468.024 14.0347 467.233 14.0747C464.452 14.0989 461.682 14.4348 458.975 15.0763H458.843H458.685C453.493 16.3269 448.713 18.8963 444.808 22.5354V22.5354C443.478 20.9489 441.82 19.6683 439.949 18.7812C438.077 17.8942 436.036 17.4215 433.965 17.3957H433.464H432.962C427.28 17.5858 421.841 19.7481 417.581 23.5106L417.001 24.0904C416.447 23.1943 415.919 22.2982 415.312 21.4547L414.864 20.7958L414.204 20.2159C412.023 17.734 409.336 15.745 406.325 14.3816C403.313 13.0181 400.046 12.3115 396.739 12.3088H395.737C391.419 12.3748 387.137 13.1128 383.047 14.4964C379.999 15.2644 377.138 16.6357 374.631 18.5291C373.076 17.2917 371.278 16.3938 369.354 15.8934H369.09H368.8C366.19 15.4009 363.541 15.1451 360.885 15.129H359.83L358.775 15.3399C357.418 15.6146 356.099 16.0481 354.844 16.6314C352.183 15.7044 349.378 15.2581 346.56 15.3135H344.264C339.935 15.2853 335.733 16.778 332.392 19.5307C332.195 19.2813 331.984 19.0436 331.759 18.819L330.968 18.081L330.044 17.5275C326.977 15.4908 323.43 14.2914 319.755 14.0484C318.964 14.0078 318.172 14.0078 317.381 14.0484C314.599 14.0741 311.83 14.41 309.123 15.0499V15.0499H308.991C303.789 16.2941 298.999 18.864 295.088 22.509V22.509L294.929 22.6672C292.79 24.8553 291.167 27.4939 290.18 30.3898V30.3898C289.253 33.1926 288.556 36.0663 288.096 38.9822C287.648 38.9822 287.252 38.7714 286.777 38.7187C286.777 37.7434 286.777 36.7155 286.777 35.6876C286.832 32.6437 286.718 29.5992 286.434 26.568C286.297 22.9488 284.744 19.5277 282.11 17.0392C279.476 14.5506 275.971 13.193 272.346 13.2576H272.135C267.783 13.1153 263.455 13.9531 259.471 15.7089C257.919 16.4504 256.515 17.4686 255.329 18.7136C255.118 18.45 254.96 18.1337 254.722 17.8702L254.327 17.3694L253.878 16.9213C250.671 13.6559 246.535 11.4564 242.033 10.6219H241.531H241.03C240.054 10.6219 239.078 10.6219 238.154 10.6219C234.421 10.5618 230.717 11.2893 227.285 12.7569L226.889 12.7305L226.467 12.9677C222.192 15.2938 218.353 18.3438 215.122 21.9819C214.516 22.6935 213.988 23.2997 213.539 23.9059C212.611 21.9453 211.254 20.2174 209.57 18.8491C207.885 17.4808 205.915 16.5068 203.804 15.9988H203.541L203.145 15.8934C200.535 15.4009 197.886 15.1451 195.23 15.129H194.175L193.119 15.3399C191.763 15.6146 190.444 16.0481 189.188 16.6314C186.527 15.7044 183.722 15.2581 180.904 15.3135H178.609C170.905 15.6298 166.79 18.8454 164.626 21.9028C162.547 20.7033 160.194 20.0588 157.793 20.0314H157.292H156.791C151.392 20.2542 146.21 22.2142 142.017 25.6192C141.272 24.4916 140.385 23.4641 139.378 22.5617L138.64 21.9555L137.795 21.4547C134.244 19.5723 130.257 18.663 126.24 18.819C123.904 18.8558 121.578 19.1385 119.301 19.6624H118.985L118.721 19.8469C115.661 20.6054 112.776 21.9479 110.226 23.8005C109.171 24.5017 108.174 25.2862 107.245 26.1463C106.048 23.4581 104.347 21.0243 102.232 18.9772L101.467 18.2392L100.543 17.6857C97.4731 15.6556 93.9277 14.4567 90.2543 14.2065C89.4629 14.2065 88.6714 14.2065 87.8799 14.2065C85.0985 14.2307 82.3286 14.5666 79.6222 15.2081H79.4639H79.332C74.1404 16.4587 69.3602 19.0281 65.4548 22.6672V22.6672C65.1961 21.2012 64.8615 19.7496 64.4523 18.3182L64.294 17.7911L64.083 17.2639C62.4527 13.243 59.6119 9.82758 55.9536 7.49022C52.2954 5.15286 48.0004 4.00909 43.663 4.21714H42.6604C33.8311 4.69271 25.4722 8.34389 19.1273 14.4964V14.4964C12.9952 20.8095 9.52843 29.2369 9.44493 38.0334V40.6691C9.22887 46.074 9.85184 51.4798 11.2917 56.6942C12.5076 61.5461 14.9829 65.9919 18.4677 69.5829C24.5884 76.5939 33.2947 80.1258 44.3225 80.1258H44.5072C48.4267 79.9872 52.2884 79.1388 55.9044 77.6218L57.0652 77.1738L58.0414 76.5148C60.0551 75.1477 61.9286 73.585 63.6345 71.8496V71.9814C67.7362 75.5436 73.0003 77.4842 78.435 77.4373C79.6873 77.4443 80.936 77.3027 82.1549 77.0156C84.157 78.2663 86.3623 79.1583 88.6714 79.6513C89.7814 79.8898 90.913 80.0134 92.0483 80.0203C94.1488 80.0299 96.227 79.5895 98.1427 78.7288L99.3827 78.1753L100.438 77.3319C101.091 76.8115 101.708 76.2479 102.285 75.645C102.979 76.1881 103.711 76.6813 104.474 77.121H104.686H104.897C108.304 78.7026 112.037 79.461 115.793 79.335C117.875 79.2897 119.95 79.0604 121.992 78.6498H122.441L122.863 78.518C128.916 77.1505 134.665 74.6848 139.827 71.2434C141.33 73.2552 143.269 74.902 145.498 76.0611C147.727 77.2203 150.19 77.8619 152.702 77.9381C153.308 77.9381 153.889 77.9381 154.496 77.9381C157 77.9252 159.491 77.5885 161.909 76.9365C164.446 76.3975 166.768 75.1232 168.584 73.2729C172.508 75.8034 177.106 77.0897 181.775 76.9629H182.25C183.899 77.0485 185.551 76.8976 187.157 76.5148C189.156 77.6827 191.437 78.2842 193.753 78.2544C197.253 78.1586 200.684 77.2566 203.778 75.6187C205.827 74.7136 207.758 73.563 209.529 72.1923C211.22 74.3472 213.326 76.1411 215.724 77.4676C218.121 78.7942 220.76 79.6264 223.486 79.9149H224.488H225.491C229.266 79.7366 232.973 78.8421 236.413 77.2792C240.408 75.456 244.136 73.0973 247.494 70.2682V70.2682C248.681 69.2403 249.789 68.2123 250.791 67.2108C251.164 68.4326 251.614 69.6298 252.137 70.7953L253.166 72.983L255.039 74.5117C259.78 78.2612 265.696 80.2127 271.739 80.0203C272.847 80.0203 273.955 80.0203 275.063 80.0203C278.725 80.0114 282.38 79.6851 285.986 79.0451C289.882 78.4975 293.474 76.6378 296.169 73.7737C299.792 76.0854 304.006 77.3027 308.305 77.2792C309.558 77.2861 310.806 77.1446 312.025 76.8575C314.025 78.1126 316.231 79.0049 318.542 79.4932C319.651 79.7345 320.783 79.8582 321.919 79.8622C324.01 79.8713 326.08 79.4308 327.987 78.5707L329.253 78.0172L330.308 77.1738C331.776 75.9872 333.072 74.6035 334.16 73.062C334.26 73.1563 334.366 73.2443 334.477 73.3256C338.401 75.8561 342.999 77.1424 347.668 77.0156H348.248C349.832 76.976 351.404 76.7188 352.918 76.2513C354.917 77.4192 357.198 78.0206 359.514 77.9908C363.014 77.8951 366.445 76.9931 369.539 75.3551C371.236 74.647 372.854 73.7637 374.367 72.7194C374.356 72.7626 374.356 72.808 374.367 72.8512L375.528 74.0636L377.031 74.8543C381.888 77.5113 387.324 78.9325 392.861 78.9924H393.494H394.101C401 78.5462 407.619 76.1007 413.149 71.955L413.835 71.4015L414.415 70.769C414.969 70.1364 415.444 69.5038 415.946 68.8713C417.452 70.7984 419.366 72.3694 421.55 73.472C423.735 74.5746 426.136 75.1816 428.583 75.2497C429.19 75.2497 429.77 75.2497 430.377 75.2497C432.881 75.2368 435.373 74.9001 437.79 74.2481C439.701 73.8363 441.501 73.0183 443.067 71.8496C447.157 75.3726 452.388 77.2926 457.788 77.2528C459.041 77.2618 460.289 77.1202 461.508 76.8311C463.517 78.0866 465.732 78.9788 468.051 79.4668C469.152 79.7067 470.275 79.8303 471.401 79.8358C473.502 79.8454 475.58 79.405 477.496 78.5443L478.736 77.9908L479.817 77.1474C484.351 73.1887 487.379 67.7896 488.392 61.8602V61.5176V61.175C489.217 55.987 489.658 50.7453 489.711 45.4925V45.0971C489.698 44.9128 489.698 44.7279 489.711 44.5436V44.5436C489.79 44.1219 489.816 43.5684 489.816 43.0412Z" fill="#B55BEF"/>
<path d="M152.501 3.41373C153.36 2.87597 154.353 2.59076 155.366 2.59076C156.38 2.59076 157.373 2.87597 158.232 3.41373C159.087 3.94964 159.775 4.71477 160.217 5.62197L161.916 9.09165L165.818 9.65695L165.87 9.66595C166.636 9.79728 167.364 10.0921 168.005 10.5303C168.645 10.9686 169.184 11.5399 169.584 12.205C169.983 12.8702 170.234 13.6138 170.32 14.385C170.344 14.6039 170.355 14.8236 170.352 15.0428C170.514 15.7671 170.572 16.5129 170.522 17.2575C170.445 18.3981 170.117 19.5076 169.561 20.5069L169.243 21.0791L166.298 23.7923L166.58 25.4517C166.713 26.1722 166.693 26.9123 166.52 27.6238L166.586 28.0139L166.587 28.0191C166.755 29.0031 166.646 30.0146 166.273 30.9408C165.898 31.8685 165.273 32.6738 164.467 33.2667C163.661 33.8597 162.705 34.2168 161.707 34.2981C160.709 34.3795 159.709 34.1818 158.817 33.7273L158.792 33.7145L155.313 31.8805L151.835 33.7145L151.81 33.7273C150.918 34.1818 149.917 34.3795 148.92 34.2981C147.922 34.2168 146.966 33.8597 146.16 33.2667C145.354 32.6738 144.728 31.8684 144.354 30.9408C143.981 30.015 143.872 29.0037 144.04 28.0197L144.041 28.0139L144.107 27.6238C143.934 26.9123 143.913 26.1722 144.046 25.4518L144.341 23.7248L141.624 21.0851L141.354 20.6396C140.756 19.655 140.38 18.5529 140.249 17.4091C140.154 16.5758 140.192 15.7347 140.359 14.9167C140.362 14.6174 140.391 14.3183 140.444 14.0223C140.577 13.2899 140.86 12.5928 141.276 11.975C141.691 11.3572 142.231 10.8321 142.859 10.4328C143.488 10.0336 144.193 9.76871 144.929 9.65498L144.948 9.65207L148.796 9.09464L150.52 5.6112C150.962 4.70871 151.648 3.94752 152.501 3.41373Z" fill="#B55BEF"/>
<path d="M156.606 9.43586L158.954 14.2329C159.054 14.4237 159.197 14.5893 159.37 14.7171C159.544 14.8449 159.745 14.9317 159.957 14.9709L165.55 13.9957C166.605 14.1538 166.763 17.2112 165.998 17.9756L162.146 21.7183C161.992 21.865 161.878 22.0482 161.813 22.2509C161.748 22.4536 161.736 22.6693 161.777 22.878L162.674 28.1494C162.716 28.3905 162.689 28.6382 162.598 28.8651C162.506 29.0919 162.353 29.2888 162.156 29.4338C161.959 29.5787 161.725 29.666 161.481 29.6859C161.237 29.7058 160.993 29.6575 160.775 29.5464L156.026 27.0424C155.84 26.9385 155.631 26.884 155.419 26.884C155.206 26.884 154.997 26.9385 154.812 27.0424L150.063 29.5464C149.845 29.6575 149.601 29.7058 149.357 29.6859C149.113 29.666 148.879 29.5787 148.682 29.4338C148.485 29.2888 148.332 29.0919 148.24 28.8651C148.149 28.6382 148.122 28.3905 148.164 28.1494L149.061 22.878C149.095 22.6693 149.079 22.4555 149.015 22.254C148.951 22.0525 148.84 21.869 148.691 21.7183L144.84 17.9756C144.075 17.2112 144.127 14.0747 145.209 13.9166L150.881 14.9709C151.091 14.9337 151.288 14.8475 151.458 14.7192C151.628 14.5909 151.765 14.4242 151.857 14.2329L154.232 9.43586C154.34 9.21305 154.508 9.02514 154.718 8.89366C154.928 8.76218 155.171 8.69244 155.419 8.69244C155.667 8.69244 155.91 8.76218 156.12 8.89366C156.33 9.02514 156.498 9.21305 156.606 9.43586Z" fill="#400645"/>
<path d="M156.606 7.40635L158.954 12.2034C159.051 12.3944 159.193 12.559 159.367 12.683C159.542 12.807 159.744 12.8867 159.957 12.915L165.233 13.6794C165.476 13.7146 165.704 13.8167 165.892 13.9742C166.08 14.1318 166.22 14.3385 166.296 14.5712C166.373 14.8039 166.383 15.0533 166.326 15.2916C166.269 15.5298 166.146 15.7473 165.972 15.9197L162.146 19.6624C161.994 19.8105 161.881 19.9938 161.816 20.1961C161.752 20.3984 161.739 20.6134 161.777 20.8222L162.674 26.0936C162.716 26.3346 162.689 26.5824 162.598 26.8092C162.506 27.036 162.353 27.2329 162.156 27.3779C161.959 27.5229 161.725 27.6102 161.481 27.6301C161.237 27.65 160.993 27.6016 160.775 27.4905L156.026 25.0129C155.84 24.909 155.631 24.8545 155.419 24.8545C155.206 24.8545 154.997 24.909 154.812 25.0129L150.063 27.4905C149.845 27.6016 149.601 27.65 149.357 27.6301C149.113 27.6102 148.879 27.5229 148.682 27.3779C148.485 27.2329 148.332 27.036 148.24 26.8092C148.149 26.5824 148.122 26.3346 148.164 26.0936L149.061 20.8222C149.093 20.6135 149.076 20.4003 149.012 20.1991C148.948 19.9979 148.838 19.8143 148.691 19.6624L144.84 15.8934C144.665 15.7209 144.543 15.5034 144.485 15.2652C144.428 15.027 144.438 14.7775 144.515 14.5448C144.592 14.3121 144.732 14.1054 144.92 13.9479C145.108 13.7904 145.336 13.6882 145.578 13.653L150.855 12.8886C151.065 12.863 151.265 12.7842 151.436 12.6597C151.606 12.5351 151.743 12.3689 151.831 12.177L154.205 7.38C154.313 7.15104 154.484 6.9578 154.698 6.82332C154.913 6.68885 155.161 6.61882 155.414 6.6216C155.667 6.62438 155.914 6.69984 156.126 6.83899C156.337 6.97814 156.504 7.17509 156.606 7.40635V7.40635Z" fill="#FFE20D"/>
<path fill-rule="evenodd" clip-rule="evenodd" d="M3.40985 26.7145C5.04692 25.1963 7.19803 24.3525 9.43173 24.3525C11.6654 24.3525 13.8165 25.1963 15.4536 26.7145C17.0781 28.221 18.0772 30.2811 18.2546 32.4872C18.2913 32.8781 18.2998 33.271 18.2799 33.6628C18.2932 33.9385 18.2924 34.2147 18.2775 34.4903C18.3164 35.5893 18.1499 36.6869 17.7853 37.7266C17.3828 38.8748 16.7473 39.9276 15.9188 40.8193C15.0903 41.7109 14.0866 42.4222 12.9704 42.9086C11.8542 43.3949 10.6495 43.646 9.43173 43.646C8.21397 43.646 7.0093 43.3949 5.89309 42.9086C4.77687 42.4222 3.77312 41.7109 2.94463 40.8193C2.11614 39.9276 1.48072 38.8748 1.07813 37.7266C0.713574 36.6869 0.547027 35.5893 0.585967 34.4903C0.571073 34.2147 0.570284 33.9385 0.583602 33.6628C0.56371 33.2709 0.57213 32.878 0.608863 32.4871C0.786277 30.2811 1.78539 28.221 3.40985 26.7145ZM14.1938 32.841L10.1289 33.1435C10.1158 32.9677 10.0367 32.8034 9.90738 32.6835C9.77807 32.5635 9.60816 32.4969 9.43173 32.4969C9.2553 32.4969 9.0854 32.5635 8.95609 32.6835C8.82678 32.8034 8.74764 32.9677 8.73453 33.1435L8.73062 33.1959L8.72536 33.2482V33.2509L8.76592 33.6541L8.72654 34.0534L8.76072 34.4001L8.73453 34.7513C8.72739 34.8471 8.74011 34.9434 8.77191 35.0341C8.80371 35.1248 8.8539 35.2079 8.91934 35.2784C8.98478 35.3488 9.06407 35.405 9.15223 35.4434C9.24039 35.4818 9.33554 35.5016 9.43173 35.5016C9.52793 35.5016 9.62308 35.4818 9.71124 35.4434C9.79941 35.405 9.87869 35.3488 9.94413 35.2784C10.0096 35.2079 10.0598 35.1248 10.0916 35.0341C10.1234 34.9434 10.1361 34.8471 10.1289 34.7513L10.1028 34.4001L10.1369 34.0534L10.0976 33.6541L10.1381 33.2509V33.2482L14.1938 32.841Z" fill="white"/>
<path fill-rule="evenodd" clip-rule="evenodd" d="M3.40985 29.4293C5.04692 27.9111 7.19803 27.0674 9.43173 27.0674C11.6654 27.0674 13.8165 27.9111 15.4536 29.4293C17.0781 30.9358 18.0772 32.996 18.2546 35.202C18.2913 35.5929 18.2998 35.9858 18.2799 36.3776C18.2932 36.6533 18.2924 36.9295 18.2775 37.2051C18.3164 38.3041 18.1499 39.4017 17.7853 40.4414C17.3828 41.5896 16.7473 42.6424 15.9188 43.5341C15.0903 44.4257 14.0866 45.137 12.9704 45.6234C11.8542 46.1098 10.6495 46.3608 9.43173 46.3608C8.21397 46.3608 7.0093 46.1098 5.89309 45.6234C4.77687 45.137 3.77312 44.4257 2.94463 43.5341C2.11614 42.6424 1.48072 41.5896 1.07813 40.4414C0.713574 39.4017 0.547027 38.3041 0.585967 37.2051C0.571073 36.9295 0.570284 36.6533 0.583602 36.3776C0.56371 35.9857 0.57213 35.5928 0.608863 35.2019C0.786277 32.9959 1.78539 30.9358 3.40985 29.4293ZM14.1938 35.5558L10.1289 35.8583C10.1158 35.6825 10.0367 35.5182 9.90738 35.3983C9.77807 35.2784 9.60816 35.2117 9.43173 35.2117C9.2553 35.2117 9.0854 35.2784 8.95609 35.3983C8.82678 35.5182 8.74764 35.6825 8.73453 35.8583L8.73062 35.9107L8.72536 35.963V35.9657L8.76592 36.3689L8.72654 36.7683L8.76072 37.1149L8.73453 37.4661C8.72739 37.5619 8.74011 37.6582 8.77191 37.7489C8.80371 37.8396 8.8539 37.9227 8.91934 37.9932C8.98478 38.0636 9.06407 38.1198 9.15223 38.1582C9.24039 38.1966 9.33554 38.2164 9.43173 38.2164C9.52793 38.2164 9.62308 38.1966 9.71124 38.1582C9.79941 38.1198 9.87869 38.0636 9.94413 37.9932C10.0096 37.9227 10.0598 37.8396 10.0916 37.7489C10.1234 37.6582 10.1361 37.5619 10.1289 37.4661L10.1028 37.1149L10.1369 36.7683L10.0976 36.3689L10.1381 35.9657V35.963L14.1938 35.5558Z" fill="#B55BEF"/>
<path fill-rule="evenodd" clip-rule="evenodd" d="M484.045 26.7145C485.682 25.1963 487.833 24.3525 490.067 24.3525C492.301 24.3525 494.452 25.1963 496.089 26.7145C497.714 28.221 498.713 30.2812 498.89 32.4872C498.927 32.8781 498.935 33.271 498.915 33.6628C498.929 33.9385 498.928 34.2147 498.913 34.4903C498.952 35.5892 498.785 36.6869 498.421 37.7266C498.018 38.8748 497.383 39.9276 496.554 40.8193C495.726 41.7109 494.722 42.4222 493.606 42.9086C492.49 43.3949 491.285 43.646 490.067 43.646C488.849 43.646 487.645 43.3949 486.528 42.9086C485.412 42.4222 484.409 41.711 483.58 40.8193C482.752 39.9276 482.116 38.8748 481.713 37.7266C481.349 36.6869 481.182 35.5892 481.221 34.4903C481.206 34.2147 481.206 33.9385 481.219 33.6628C481.199 33.2709 481.208 32.878 481.244 32.4871C481.422 30.2811 482.421 28.221 484.045 26.7145ZM494.829 32.841L490.764 33.1435C490.751 32.9677 490.672 32.8033 490.543 32.6835C490.413 32.5635 490.244 32.4969 490.067 32.4969C489.891 32.4969 489.721 32.5635 489.591 32.6835C489.462 32.8034 489.383 32.9677 489.37 33.1435L489.366 33.1959L489.361 33.2482V33.2509L489.401 33.6541L489.362 34.0534L489.396 34.4001L489.37 34.7513C489.363 34.8471 489.375 34.9434 489.407 35.0341C489.439 35.1247 489.489 35.2079 489.555 35.2784C489.62 35.3487 489.699 35.4049 489.788 35.4434C489.876 35.4818 489.971 35.5016 490.067 35.5016C490.163 35.5016 490.258 35.4818 490.347 35.4434C490.435 35.405 490.514 35.3488 490.58 35.2784C490.645 35.2079 490.695 35.1247 490.727 35.0341C490.759 34.9434 490.771 34.8471 490.764 34.7513L490.738 34.4001L490.772 34.0534L490.733 33.6541L490.773 33.2509V33.2482L494.829 32.841Z" fill="white"/>
<path d="M9.41855 41.9342C12.0558 41.9342 14.1938 39.7983 14.1938 37.1636C14.1938 34.5288 12.0558 32.3929 9.41855 32.3929C6.78127 32.3929 4.64333 34.5288 4.64333 37.1636C4.64333 39.7983 6.78127 41.9342 9.41855 41.9342Z" fill="#400645"/>
<path d="M9.41855 40.3265C12.0558 40.3265 14.1938 38.1906 14.1938 35.5558C14.1938 32.921 12.0558 30.7852 9.41855 30.7852C6.78127 30.7852 4.64333 32.921 4.64333 35.5558C4.64333 38.1906 6.78127 40.3265 9.41855 40.3265Z" fill="#FFE20D"/>
<path fill-rule="evenodd" clip-rule="evenodd" d="M484.045 29.4293C485.682 27.9111 487.833 27.0674 490.067 27.0674C492.301 27.0674 494.452 27.9111 496.089 29.4293C497.714 30.9359 498.713 32.996 498.89 35.202C498.927 35.5929 498.935 35.9858 498.915 36.3776C498.929 36.6533 498.928 36.9295 498.913 37.2051C498.952 38.304 498.785 39.4017 498.421 40.4414C498.018 41.5896 497.383 42.6425 496.554 43.5341C495.726 44.4257 494.722 45.137 493.606 45.6234C492.49 46.1098 491.285 46.3608 490.067 46.3608C488.849 46.3608 487.645 46.1098 486.528 45.6234C485.412 45.137 484.409 44.4258 483.58 43.5341C482.751 42.6425 482.116 41.5896 481.713 40.4414C481.349 39.4017 481.182 38.3041 481.221 37.2051C481.206 36.9295 481.206 36.6533 481.219 36.3776C481.199 35.9857 481.207 35.5928 481.244 35.2019C481.422 32.9959 482.421 30.9358 484.045 29.4293ZM494.829 35.5558L490.764 35.8583C490.751 35.6825 490.672 35.5182 490.543 35.3983C490.413 35.2784 490.244 35.2117 490.067 35.2117C489.891 35.2117 489.721 35.2784 489.591 35.3983C489.462 35.5182 489.383 35.6826 489.37 35.8583L489.366 35.9107L489.361 35.963V35.9657L489.401 36.3689L489.362 36.7683L489.396 37.1149L489.37 37.4661C489.363 37.562 489.375 37.6582 489.407 37.7489C489.439 37.8396 489.489 37.9227 489.555 37.9932C489.62 38.0636 489.699 38.1198 489.788 38.1582C489.876 38.1966 489.971 38.2164 490.067 38.2164C490.163 38.2164 490.258 38.1966 490.347 38.1582C490.435 38.1198 490.514 38.0636 490.579 37.9932C490.645 37.9227 490.695 37.8396 490.727 37.7489C490.759 37.6582 490.771 37.562 490.764 37.4661L490.738 37.1149L490.772 36.7683L490.733 36.3689L490.773 35.9657V35.963L494.829 35.5558Z" fill="#B55BEF"/>
<path d="M490.054 41.9342C492.691 41.9342 494.829 39.7983 494.829 37.1636C494.829 34.5288 492.691 32.3929 490.054 32.3929C487.417 32.3929 485.279 34.5288 485.279 37.1636C485.279 39.7983 487.417 41.9342 490.054 41.9342Z" fill="#400645"/>
<path d="M490.054 40.3265C492.691 40.3265 494.829 38.1906 494.829 35.5558C494.829 32.921 492.691 30.7852 490.054 30.7852C487.417 30.7852 485.279 32.921 485.279 35.5558C485.279 38.1906 487.417 40.3265 490.054 40.3265Z" fill="#FFE20D"/>
<path d="M43.6629 17.3957C45.8887 17.2039 48.117 17.7335 50.0178 18.9061C51.9186 20.0788 53.3907 21.832 54.2159 23.906C55.1518 26.9766 55.5184 30.1923 55.2976 33.3945C55.2658 34.7551 54.9406 36.0928 54.3441 37.3164C53.7477 38.54 52.8941 39.6206 51.8415 40.4846C51.2347 40.6164 50.9445 40.7218 50.9445 40.8536C49.4651 40.6599 48.0015 40.3604 46.565 39.9575H45.6416C39.8111 40.6955 36.909 42.5932 36.909 45.5715V47.0475C37.1908 48.186 37.8444 49.1982 38.7667 49.9238C39.6889 50.6494 40.827 51.0471 42.0009 51.0538C42.0009 51.0538 42.5021 51.2383 43.4783 51.2383C46.016 49.726 48.3405 47.8823 50.3905 45.756C51.2864 45.2625 52.2741 44.9575 53.2925 44.8599C54.8227 44.8599 56.5112 46.7313 58.4107 50.5003C59.2579 52.1368 59.7522 53.9326 59.8618 55.7718C59.8618 60.2349 57.2235 64.2412 51.947 67.7906C49.5215 68.8351 46.9326 69.4505 44.2961 69.6093H44.1115C36.144 69.6093 30.1288 67.2459 26.0659 62.5192C23.6996 60.1039 22.0628 57.071 21.3434 53.7686C20.153 49.4824 19.663 45.0323 19.8924 40.59C19.9852 34.5355 22.3921 28.7456 26.6199 24.4067C31.2554 20.0721 37.3163 17.5788 43.6629 17.3957Z" fill="#400645"/>
<path d="M89.7003 27.227C91.5888 27.3778 93.4063 28.0133 94.9768 29.072C96.9616 31.1161 98.3169 33.6868 98.8814 36.4783C99.5688 39.4616 99.9315 42.5104 99.9631 45.5715C99.9192 50.2872 99.5135 54.9926 98.7495 59.6463C98.2256 63.2202 96.5162 66.5151 93.8951 69.0031C92.9616 69.3988 91.925 69.482 90.9403 69.2403C88.8011 68.7834 86.8724 67.6347 85.4527 65.972C84.2647 63.6107 83.7969 60.9529 84.1072 58.3284C84.1072 58.1439 84.1072 57.5377 84.2391 56.5098H83.9753H81.7856C81.6273 56.5098 81.5481 56.5888 81.5481 56.747L82.1549 61.7021C82.1549 64.3378 81.6273 65.8666 80.572 66.5782C79.9487 66.8146 79.2863 66.9309 78.6197 66.9209C75.7114 66.9768 72.8877 65.9425 70.705 64.0216C69.8871 63.2308 69.1748 59.9889 68.5152 54.3221C68.3688 53.4509 68.2894 52.5698 68.2778 51.6864C68.0425 46.5418 68.7855 41.3992 70.4675 36.531C70.9326 35.1152 71.718 33.8255 72.7628 32.762C75.3708 30.3609 78.5491 28.6645 81.9966 27.8332C84.5154 27.2196 87.1165 27.0149 89.7003 27.227V27.227ZM81.0732 47.522L81.4426 47.7592C84.2655 47.4165 85.6902 46.8103 85.6902 45.9405C86.0557 44.5496 86.0557 43.088 85.6902 41.697C85.5319 40.8536 84.9779 40.4846 83.9753 40.59C83.0582 41.2549 82.3528 42.1701 81.9439 43.2258C81.2902 44.5597 80.9904 46.039 81.0732 47.522V47.522Z" fill="#400645"/>
<path d="M126.293 32.0239C128.481 31.9166 130.661 32.3703 132.625 33.3418C133.159 33.7429 133.595 34.2594 133.901 34.8528C134.207 35.4461 134.375 36.1009 134.392 36.7682C134.208 38.9086 133.274 40.9155 131.754 42.435C131.015 42.9622 129.722 42.7777 127.902 41.9079C126.504 41.5208 125.026 41.525 123.63 41.9201C122.235 42.3152 120.974 43.086 119.987 44.1482C119.539 45.387 119.987 45.9142 121.412 45.6506C123.334 45.61 125.246 45.3536 127.111 44.8862C130.078 44.2197 133.178 44.4679 136.001 45.5979C137.096 46.3489 137.984 47.363 138.583 48.5467C139.183 49.7305 139.474 51.0458 139.431 52.3717C139.315 54.5094 138.71 56.5921 137.664 58.4602C136.616 60.0163 135.375 61.4334 133.97 62.6773C129.765 65.5019 125.067 67.5134 120.119 68.6077C118.719 68.8892 117.299 69.0567 115.872 69.1085C113.748 69.2089 111.629 68.8305 109.672 68.0015C108.906 67.6847 108.249 67.1523 107.78 66.4691C107.312 65.7858 107.052 64.9813 107.034 64.1533C107.01 62.6896 107.169 61.2286 107.508 59.8044C107.789 58.3802 108.316 57.0156 109.065 55.7717C109.856 54.7702 110.542 54.243 111.096 54.243C113.409 54.3666 115.705 54.7019 117.956 55.2446C120.766 55.5681 123.614 55.225 126.266 54.243C129.432 52.767 130.989 51.6073 130.91 50.8166C130.831 50.0259 130.197 49.8677 128.799 50.105C126.02 50.5891 123.278 51.2673 120.594 52.1345C119.272 52.4535 117.918 52.6215 116.558 52.6352C115.692 52.7525 114.81 52.6415 114 52.3132C113.19 51.985 112.48 51.4509 111.941 50.7639C111.033 48.9397 110.58 46.9231 110.622 44.8862C110.558 42.8218 111.073 40.7807 112.108 38.9926C113.142 37.2045 114.656 35.7404 116.478 34.7651C118.054 33.6502 119.855 32.8944 121.755 32.5511C123.245 32.22 124.766 32.0434 126.293 32.0239V32.0239Z" fill="#400645"/>
<path d="M157.978 33.2364C158.784 33.3158 159.556 33.5996 160.221 34.0609C160.885 34.5222 161.421 35.1457 161.777 35.8721C163.313 39.9733 164.047 44.3306 163.94 48.708C164.051 50.4635 164.051 52.2241 163.94 53.9795C163.723 57.4153 163.175 60.8223 162.305 64.1533C162.133 64.8062 161.783 65.3985 161.294 65.864C160.805 66.3295 160.196 66.6498 159.535 66.7891C157.488 67.3782 155.353 67.6013 153.229 67.448C152.1 67.409 151.001 67.0776 150.039 66.4861C149.077 65.8947 148.285 65.0636 147.742 64.0743C147.145 60.4682 146.863 56.8172 146.897 53.1624V50.5267C146.883 47.6873 147.077 44.8507 147.478 42.0397C147.723 40.1086 148.257 38.2252 149.061 36.452C151.603 34.4375 154.734 33.3083 157.978 33.2364V33.2364Z" fill="#400645"/>
<path d="M195.415 28.2549C197.399 28.2805 199.377 28.4834 201.324 28.8611C202.06 29.06 202.728 29.4541 203.258 30.0017C203.787 30.5493 204.158 31.2299 204.332 31.9712C205.688 36.6176 206.32 41.4448 206.205 46.2832C206.431 51.7878 205.835 57.2952 204.438 62.6246C203.002 64.1069 201.253 65.2504 199.319 65.972C197.613 66.924 195.705 67.457 193.753 67.5271C191.932 67.5271 190.349 65.5766 188.977 61.6494C187.755 59.1115 186.774 56.4641 186.049 53.7423C184.991 50.5244 184.111 47.2513 183.411 43.9374C183.65 50.4457 184.355 56.9286 185.521 63.3363C186.023 65.4185 184.915 66.4991 182.171 66.5782C179.512 66.7385 176.868 66.0759 174.599 64.6805C174.115 64.3431 173.721 63.8934 173.45 63.3699C173.179 62.8465 173.039 62.2651 173.042 61.6758C172.001 56.4707 171.523 51.1687 171.618 45.8615C171.618 37.3218 172.04 32.5247 172.937 31.5232C173.676 29.6782 175.786 28.6766 179.295 28.5185C183.833 28.3076 186.418 28.8611 187.21 30.179C188.925 31.9976 191.457 38.5078 194.755 49.736C194.542 44.8642 194.066 40.0075 193.331 35.1868C192.881 33.7363 192.58 32.2438 192.434 30.7325C192.302 29.4937 193.331 28.6766 195.415 28.2549Z" fill="#400645"/>
<path d="M240.212 23.6424C242.61 24.1057 244.805 25.3032 246.491 27.0688C248.846 30.098 250.43 33.6523 251.108 37.4272C251.481 39.8961 251.543 42.402 251.293 44.8863C251.062 47.2613 250.4 49.5745 249.34 51.7128C247.282 55.7403 244.364 59.2673 240.793 62.0448C238.102 64.3362 235.099 66.2352 231.875 67.6852C229.568 68.7048 227.088 69.2772 224.567 69.3721C222.81 69.157 221.134 68.5034 219.696 67.4717C218.257 66.4399 217.102 65.0631 216.336 63.4681C214.945 60.6227 214.249 57.4883 214.305 54.3221C214.339 50.4312 215.025 46.5736 216.336 42.9095C217.335 40.3194 218.562 37.8232 220.003 35.4504C220.863 34.037 221.862 32.7126 222.984 31.4968C225.413 28.7865 228.297 26.5209 231.506 24.8021C234.266 23.6965 237.259 23.2978 240.212 23.6424V23.6424ZM226.361 55.0074C226.177 57.2478 227.469 58.3548 230.266 58.3548C232.682 57.9502 234.928 56.8511 236.73 55.1919C238.744 53.4225 240.008 50.9534 240.265 48.2863C239.869 46.415 238.972 45.3607 237.627 45.1498C235.829 45.3722 234.095 45.9534 232.526 46.859C230.958 47.7646 229.588 48.976 228.498 50.4213C227.431 51.7585 226.699 53.3307 226.361 55.0074V55.0074Z" fill="#400645"/>
<path d="M272.214 26.4362C274.43 26.4362 275.617 27.7277 275.776 30.3107C276.725 40.4846 275.688 48.5675 272.663 54.5593C273.892 54.0285 275.163 53.5966 276.462 53.2678C279.121 52.5831 281.844 52.1768 284.587 52.0554C285.497 52.0153 286.407 52.1554 287.262 52.4675C288.118 52.7796 288.903 53.2576 289.574 53.874C290.043 54.7266 290.254 55.6975 290.18 56.6679C290.451 60.0526 289.898 63.4524 288.571 66.5782C287.448 67.8294 285.893 68.6107 284.218 68.7658C280.173 69.4999 276.054 69.7477 271.95 69.5038C268.317 69.6161 264.759 68.4501 261.898 66.2092C260.477 62.6737 259.891 58.8587 260.184 55.0601C260.184 41.003 260.667 32.964 261.635 30.9433C261.776 30.2957 262.057 29.6867 262.458 29.1587C262.859 28.6307 263.37 28.1963 263.956 27.8859C266.567 26.7968 269.388 26.3016 272.214 26.4362V26.4362Z" fill="#400645"/>
<path d="M319.228 27.2269C321.188 27.3849 323.072 28.0578 324.689 29.1774C326.665 31.2239 328.011 33.7947 328.567 36.5837C329.325 39.5571 329.733 42.6089 329.781 45.677C329.733 50.3914 329.336 55.0958 328.593 59.7517C328.072 63.3323 326.352 66.6307 323.713 69.1085C322.78 69.5061 321.742 69.5893 320.758 69.3457C318.601 68.8795 316.656 67.7227 315.217 66.051C314.029 63.6898 313.562 61.032 313.872 58.4075C313.872 58.223 313.872 57.6168 313.872 56.5888H313.634H311.313C311.155 56.5888 311.075 56.6679 311.075 56.826L311.709 61.7812C311.709 64.4169 311.155 65.9456 310.099 66.6573C309.485 66.8948 308.831 67.0111 308.173 66.9999C305.263 67.0663 302.436 66.0305 300.259 64.1006C299.441 63.3099 298.702 60.068 298.069 54.4012C297.922 53.53 297.843 52.6488 297.831 51.7655C297.586 46.6224 298.32 41.4797 299.995 36.6101C300.469 35.1926 301.264 33.903 302.316 32.841C304.921 30.4352 308.101 28.738 311.55 27.9122C314.056 27.274 316.648 27.0426 319.228 27.2269V27.2269ZM310.759 47.522L311.102 47.7592C313.925 47.4165 315.349 46.8103 315.349 45.9405C315.716 44.5498 315.716 43.0878 315.349 41.697C315.191 40.8536 314.637 40.4846 313.634 40.59C312.703 41.2466 311.987 42.1636 311.577 43.2257C310.939 44.5637 310.657 46.0435 310.759 47.522V47.522Z" fill="#400645"/>
<path d="M361.044 28.2549C363.028 28.2805 365.006 28.4834 366.953 28.8611C367.689 29.06 368.357 29.4541 368.887 30.0017C369.416 30.5493 369.787 31.2299 369.961 31.9712C371.304 36.6203 371.935 41.4455 371.834 46.2832C372.066 51.7896 371.461 57.2993 370.04 62.6246C368.623 64.1357 366.882 65.307 364.948 66.0511C363.241 67.0003 361.334 67.5331 359.382 67.6061C357.561 67.6061 355.978 65.6557 354.606 61.7285C353.384 59.1906 352.403 56.5431 351.678 53.8213C350.62 50.6035 349.74 47.3303 349.04 44.0165C349.283 50.4983 349.988 56.9546 351.15 63.3363C351.652 65.4185 350.543 66.4991 347.8 66.5782C345.141 66.7385 342.497 66.0759 340.228 64.6805C339.744 64.3431 339.35 63.8934 339.079 63.3699C338.808 62.8465 338.668 62.2651 338.671 61.6758C337.63 56.4707 337.152 51.1687 337.247 45.8615C337.247 37.3217 337.669 32.5247 338.566 31.5232C339.305 29.6782 341.415 28.6766 344.924 28.5185C349.462 28.3076 352.047 28.8611 352.68 30.179C354.439 31.9361 356.963 38.4551 360.252 49.736C360.043 44.8628 359.559 40.0054 358.801 35.1868C358.378 33.7297 358.078 32.2397 357.904 30.7325C357.904 29.4937 358.96 28.6766 361.044 28.2549Z" fill="#400645"/>
<path d="M395.921 25.4347C397.914 25.3015 399.91 25.6431 401.744 26.4313C403.579 27.2194 405.2 28.4316 406.474 29.9681C415.075 42.8831 415.075 54.1991 406.474 63.9161C402.46 66.7109 397.746 68.3353 392.861 68.6077C389.037 68.5494 385.287 67.5538 381.939 65.7084C380.408 64.1094 379.599 57.9067 379.511 47.1003C379.423 36.2938 380.004 30.3635 381.253 29.3092C382.75 28.2861 384.422 27.5447 386.186 27.1215C389.313 26.0144 392.604 25.4441 395.921 25.4347V25.4347ZM393.758 43.8847C393.196 47.5676 393.143 51.31 393.6 55.0074C393.732 56.009 394.655 56.4571 396.238 56.3516C397.655 56.2942 399.031 55.8572 400.222 55.0865C401.109 54.2724 401.77 53.2422 402.14 52.0965C402.51 50.9508 402.576 49.7288 402.332 48.5499C401.171 44.1219 398.691 42.0133 394.866 42.1978C394.365 42.2505 393.969 42.7777 393.758 43.8056V43.8847Z" fill="#400645"/>
<path d="M433.806 30.6007C434.612 30.6801 435.384 30.9639 436.049 31.4252C436.714 31.8865 437.25 32.51 437.606 33.2364C439.141 37.3376 439.875 41.6949 439.769 46.0723C439.879 47.8278 439.879 49.5883 439.769 51.3438C439.552 54.7796 439.004 58.1866 438.133 61.5176C437.972 62.1539 437.642 62.7348 437.178 63.1988C436.713 63.6628 436.132 63.9926 435.495 64.1533C433.448 64.7425 431.314 64.9655 429.19 64.8123C428.044 64.787 426.925 64.4591 425.947 63.8619C424.97 63.2647 424.168 62.4195 423.623 61.4122C423.026 57.8059 422.735 54.1556 422.752 50.5003V47.8646C422.759 45.025 422.961 42.1893 423.359 39.3776C423.605 37.4466 424.138 35.5631 424.942 33.7899C427.473 31.7956 430.584 30.6764 433.806 30.6007V30.6007Z" fill="#400645"/>
<path d="M468.816 27.227C470.778 27.3774 472.664 28.051 474.277 29.1774C476.262 31.2215 477.617 33.7923 478.182 36.5838C478.869 39.567 479.232 42.6158 479.263 45.677C479.22 50.3926 478.814 55.098 478.05 59.7517C477.536 63.3288 475.825 66.6268 473.195 69.1085C472.262 69.5042 471.225 69.5874 470.241 69.3457C468.079 68.8925 466.13 67.7334 464.7 66.0511C463.512 63.6898 463.045 61.032 463.355 58.4075C463.355 58.223 463.355 57.6168 463.487 56.5888H463.223H460.928C460.769 56.5888 460.69 56.6679 460.69 56.8261L461.297 61.7812C461.297 64.4169 460.769 65.9456 459.714 66.6573C459.091 66.8937 458.428 67.0099 457.762 66.9999C454.853 67.0559 452.03 66.0215 449.847 64.1006C449.029 63.3099 448.317 60.068 447.657 54.4012C447.511 53.53 447.431 52.6488 447.42 51.7655C447.185 46.6208 447.928 41.4783 449.61 36.6101C450.073 35.1876 450.869 33.8958 451.931 32.841C454.526 30.4352 457.697 28.7378 461.139 27.9122C463.645 27.2749 466.237 27.0436 468.816 27.227V27.227ZM460.321 47.522L460.69 47.7592C463.513 47.4165 464.938 46.8103 464.938 45.9405C465.303 44.5496 465.303 43.088 464.938 41.697C464.806 40.8536 464.225 40.4846 463.249 40.59C462.318 41.2466 461.602 42.1636 461.191 43.2258C460.538 44.5597 460.238 46.039 460.321 47.522V47.522Z" fill="#400645"/>
<path d="M43.6629 14.76C45.8887 14.5682 48.117 15.0978 50.0178 16.2704C51.9186 17.443 53.3907 19.1962 54.2159 21.2702C55.1518 24.3409 55.5184 27.5565 55.2976 30.7588C55.2658 32.1194 54.9406 33.4571 54.3441 34.6807C53.7477 35.9043 52.8941 36.9849 51.8415 37.8489C51.2347 37.9807 50.9445 38.0861 50.9445 38.2179C49.4651 38.0241 48.0015 37.7246 46.565 37.3217H45.6416C39.8111 38.0597 36.909 39.9574 36.909 42.9358V44.4118C37.1908 45.5503 37.8444 46.5624 38.7667 47.288C39.6889 48.0137 40.827 48.4113 42.0009 48.4181C42.0009 48.4181 42.5021 48.6026 43.4783 48.6026C46.016 47.0902 48.3405 45.2465 50.3905 43.1203C51.2864 42.6268 52.2741 42.3218 53.2925 42.2242C54.8227 42.2242 56.5112 44.0955 58.4107 47.8646C59.2579 49.5011 59.7522 51.2969 59.8618 53.136C59.8618 57.5992 57.2235 61.6055 51.947 65.1549C49.5215 66.1994 46.9326 66.8147 44.2961 66.9735H44.1115C36.144 66.9735 30.1288 64.6102 26.0659 59.8835C23.6996 57.4681 22.0628 54.4353 21.3434 51.1329C20.153 46.8467 19.663 42.3966 19.8924 37.9543C19.9852 31.8998 22.3921 26.1099 26.6199 21.771C31.2554 17.4363 37.3163 14.943 43.6629 14.76V14.76Z" fill="white"/>
<path d="M89.7003 24.5912C91.5888 24.7421 93.4063 25.3776 94.9768 26.4362C96.9616 28.4804 98.3169 31.0511 98.8814 33.8426C99.5688 36.8259 99.9315 39.8747 99.9631 42.9358C99.9192 47.6515 99.5135 52.3568 98.7495 57.0105C98.2256 60.5845 96.5162 63.8794 93.8951 66.3673C92.9616 66.763 91.925 66.8463 90.9403 66.6045C88.8011 66.1476 86.8724 64.9989 85.4527 63.3362C84.2647 60.975 83.7969 58.3172 84.1072 55.6927C84.1072 55.5082 84.1072 54.902 84.2391 53.874H83.9753H81.7856C81.6273 53.874 81.5481 53.9531 81.5481 54.1112L82.1549 59.0664C82.1549 61.7021 81.6273 63.2308 80.572 63.9425C79.9487 64.1789 79.2863 64.2951 78.6197 64.2851C75.7114 64.3411 72.8877 63.3067 70.705 61.3858C69.8871 60.5951 69.1748 57.3532 68.5152 51.6864C68.3688 50.8152 68.2894 49.934 68.2778 49.0507C68.0425 43.906 68.7855 38.7635 70.4675 33.8953C70.9326 32.4795 71.718 31.1898 72.7628 30.1262C75.3708 27.7252 78.5491 26.0287 81.9966 25.1974C84.5154 24.5838 87.1165 24.3792 89.7003 24.5912V24.5912ZM81.0732 44.8862L81.4426 45.1235C84.2655 44.7808 85.6902 44.1746 85.6902 43.3048C86.0557 41.9139 86.0557 40.4522 85.6902 39.0613C85.5319 38.2179 84.9779 37.8489 83.9753 37.9543C83.0582 38.6191 82.3528 39.5343 81.9439 40.59C81.2902 41.924 80.9904 43.4033 81.0732 44.8862V44.8862Z" fill="white"/>
<path d="M126.293 29.3882C128.481 29.2809 130.661 29.7346 132.625 30.7061C133.159 31.1072 133.595 31.6237 133.901 32.2171C134.207 32.8104 134.375 33.4652 134.392 34.1325C134.208 36.2729 133.274 38.2798 131.754 39.7993C131.015 40.3265 129.722 40.142 127.902 39.2722C126.504 38.885 125.026 38.8893 123.63 39.2844C122.235 39.6795 120.974 40.4503 119.987 41.5125C119.539 42.7513 119.987 43.2785 121.412 43.0149C123.334 42.9743 125.246 42.7179 127.111 42.2505C130.078 41.584 133.178 41.8322 136.001 42.9622C137.096 43.7132 137.984 44.7273 138.583 45.911C139.183 47.0947 139.474 48.4101 139.431 49.736C139.315 51.8737 138.71 53.9564 137.664 55.8245C136.616 57.3806 135.375 58.7977 133.97 60.0416C129.765 62.8662 125.067 64.8777 120.119 65.972C118.719 66.2535 117.299 66.421 115.872 66.4728C113.748 66.5732 111.629 66.1948 109.672 65.3658C108.906 65.049 108.249 64.5166 107.78 63.8334C107.312 63.1501 107.052 62.3455 107.034 61.5176C107.01 60.0539 107.169 58.5929 107.508 57.1687C107.789 55.7445 108.316 54.3799 109.065 53.136C109.856 52.1345 110.542 51.6073 111.096 51.6073C113.409 51.7309 115.705 52.0662 117.956 52.6089C120.766 52.9324 123.614 52.5892 126.266 51.6073C129.432 50.1313 130.989 48.9716 130.91 48.1809C130.831 47.3902 130.197 47.232 128.799 47.4692C126.02 47.9534 123.278 48.6315 120.594 49.4987C119.272 49.8178 117.918 49.9858 116.558 49.9995C115.692 50.1168 114.81 50.0058 114 49.6775C113.19 49.3493 112.48 48.8151 111.941 48.1282C111.033 46.304 110.58 44.2874 110.622 42.2505C110.558 40.1861 111.073 38.145 112.108 36.3569C113.142 34.5688 114.656 33.1047 116.478 32.1294C118.054 31.0145 119.855 30.2587 121.755 29.9154C123.245 29.5843 124.766 29.4077 126.293 29.3882V29.3882Z" fill="white"/>
<path d="M157.978 30.6007C158.784 30.6801 159.556 30.9639 160.221 31.4252C160.885 31.8865 161.421 32.51 161.777 33.2364C163.313 37.3376 164.047 41.6949 163.94 46.0723C164.051 47.8278 164.051 49.5883 163.94 51.3438C163.723 54.7796 163.175 58.1866 162.305 61.5176C162.133 62.1705 161.783 62.7628 161.294 63.2283C160.805 63.6937 160.196 64.0141 159.535 64.1533C157.488 64.7425 155.353 64.9655 153.229 64.8123C152.1 64.7733 151.001 64.4419 150.039 63.8504C149.077 63.259 148.285 62.4278 147.742 61.4386C147.145 57.8325 146.863 54.1815 146.897 50.5267V47.891C146.883 45.0516 147.077 42.215 147.478 39.404C147.723 37.4729 148.257 35.5895 149.061 33.8163C151.603 31.8018 154.734 30.6726 157.978 30.6007V30.6007Z" fill="white"/>
<path d="M195.415 25.6192C197.399 25.6448 199.377 25.8477 201.324 26.2254C202.06 26.4243 202.728 26.8184 203.258 27.366C203.787 27.9136 204.158 28.5942 204.332 29.3355C205.688 33.9819 206.32 38.8091 206.205 43.6475C206.431 49.1521 205.835 54.6595 204.438 59.9889C203.002 61.4712 201.253 62.6147 199.319 63.3363C197.613 64.2883 195.705 64.8213 193.753 64.8913C191.932 64.8913 190.349 62.9409 188.977 59.0137C187.755 56.4758 186.774 53.8284 186.049 51.1066C184.991 47.8887 184.111 44.6156 183.411 41.3017C183.65 47.81 184.355 54.2929 185.521 60.7006C186.023 62.7828 184.915 63.8634 182.171 63.9425C179.512 64.1028 176.868 63.4401 174.599 62.0448C174.115 61.7074 173.721 61.2576 173.45 60.7342C173.179 60.2108 173.039 59.6294 173.042 59.0401C172.001 53.8349 171.523 48.533 171.618 43.2258C171.618 34.686 172.04 29.889 172.937 28.8875C173.676 27.0425 175.786 26.0409 179.295 25.8827C183.833 25.6719 186.418 26.2254 187.21 27.5432C188.925 29.3619 191.457 35.8721 194.755 47.1003C194.542 42.2285 194.066 37.3718 193.331 32.5511C192.881 31.1006 192.58 29.6081 192.434 28.0967C192.302 26.858 193.331 26.0409 195.415 25.6192Z" fill="white"/>
<path d="M240.212 21.0066C242.61 21.47 244.805 22.6675 246.491 24.4331C248.846 27.4622 250.43 31.0166 251.108 34.7914C251.481 37.2603 251.543 39.7662 251.293 42.2505C251.062 44.6255 250.4 46.9387 249.34 49.077C247.282 53.1046 244.364 56.6316 240.793 59.409C238.102 61.7004 235.099 63.5995 231.875 65.0495C229.568 66.069 227.088 66.6414 224.567 66.7363C222.81 66.5212 221.134 65.8677 219.696 64.8359C218.257 63.8041 217.102 62.4273 216.336 60.8323C214.945 57.9869 214.249 54.8526 214.305 51.6864C214.339 47.7955 215.025 43.9378 216.336 40.2737C217.335 37.6836 218.562 35.1874 220.003 32.8147C220.863 31.4013 221.862 30.0769 222.984 28.8611C225.413 26.1508 228.297 23.8851 231.506 22.1664C234.266 21.0607 237.259 20.6621 240.212 21.0066V21.0066ZM226.361 52.3717C226.177 54.612 227.469 55.719 230.266 55.719C232.682 55.3144 234.928 54.2154 236.73 52.5562C238.744 50.7867 240.008 48.3176 240.265 45.6506C239.869 43.7792 238.972 42.7249 237.627 42.5141C235.829 42.7364 234.095 43.3177 232.526 44.2233C230.958 45.1289 229.588 46.3403 228.498 47.7855C227.431 49.1227 226.699 50.6949 226.361 52.3717V52.3717Z" fill="white"/>
<path d="M272.214 23.8005C274.43 23.8005 275.617 25.092 275.776 27.675C276.725 37.8489 275.688 45.9318 272.663 51.9236C273.892 51.3928 275.163 50.9609 276.462 50.6321C279.121 49.9474 281.844 49.5411 284.587 49.4197C285.497 49.3796 286.407 49.5197 287.262 49.8318C288.118 50.1439 288.903 50.6219 289.574 51.2383C290.043 52.0909 290.254 53.0618 290.18 54.0322C290.451 57.4169 289.898 60.8167 288.571 63.9425C287.448 65.1937 285.893 65.975 284.218 66.1301C280.173 66.8642 276.054 67.112 271.95 66.8681C268.317 66.9804 264.759 65.8144 261.898 63.5735C260.477 60.038 259.891 56.223 260.184 52.4244C260.184 38.3673 260.667 30.3283 261.635 28.3076C261.776 27.66 262.057 27.051 262.458 26.523C262.859 25.995 263.37 25.5606 263.956 25.2502C266.567 24.1611 269.388 23.6659 272.214 23.8005V23.8005Z" fill="white"/>
<path d="M319.228 24.5912C321.188 24.7492 323.072 25.4221 324.689 26.5417C326.665 28.5882 328.011 31.159 328.567 33.948C329.325 36.9214 329.733 39.9732 329.781 43.0412C329.733 47.7557 329.336 52.4601 328.593 57.116C328.072 60.6965 326.352 63.9949 323.713 66.4728C322.78 66.8704 321.742 66.9536 320.758 66.71C318.601 66.2438 316.656 65.087 315.217 63.4153C314.029 61.0541 313.562 58.3963 313.872 55.7718C313.872 55.5873 313.872 54.981 313.872 53.9531H313.634H311.313C311.155 53.9531 311.075 54.0322 311.075 54.1903L311.709 59.1455C311.709 61.7812 311.155 63.3099 310.099 64.0215C309.485 64.259 308.831 64.3754 308.173 64.3642C305.263 64.4306 302.436 63.3948 300.259 61.4649C299.441 60.6742 298.702 57.4323 298.069 51.7655C297.922 50.8942 297.843 50.0131 297.831 49.1298C297.586 43.9867 298.32 38.844 299.995 33.9744C300.469 32.5569 301.264 31.2673 302.316 30.2053C304.921 27.7994 308.101 26.1023 311.55 25.2765C314.056 24.6383 316.648 24.4069 319.228 24.5912V24.5912ZM310.759 44.8862L311.102 45.1235C313.925 44.7808 315.349 44.1746 315.349 43.3048C315.716 41.914 315.716 40.4521 315.349 39.0613C315.191 38.2179 314.637 37.8489 313.634 37.9543C312.703 38.6109 311.987 39.5279 311.577 40.59C310.939 41.928 310.657 43.4077 310.759 44.8862V44.8862Z" fill="white"/>
<path d="M361.044 25.6192C363.028 25.6448 365.006 25.8477 366.953 26.2254C367.689 26.4243 368.357 26.8184 368.887 27.366C369.416 27.9136 369.787 28.5942 369.961 29.3355C371.304 33.9846 371.935 38.8098 371.834 43.6475C372.066 49.1539 371.461 54.6636 370.04 59.9889C368.623 61.5 366.882 62.6713 364.948 63.4153C363.241 64.3646 361.334 64.8974 359.382 64.9704C357.561 64.9704 355.978 63.02 354.606 59.0928C353.384 56.5549 352.403 53.9074 351.678 51.1856C350.62 47.9678 349.74 44.6946 349.04 41.3808C349.283 47.8626 349.988 54.3189 351.15 60.7006C351.652 62.7828 350.543 63.8634 347.8 63.9425C345.141 64.1028 342.497 63.4401 340.228 62.0448C339.744 61.7074 339.35 61.2576 339.079 60.7342C338.808 60.2108 338.668 59.6294 338.671 59.0401C337.63 53.8349 337.152 48.533 337.247 43.2258C337.247 34.686 337.669 29.889 338.566 28.8875C339.305 27.0425 341.415 26.0409 344.924 25.8827C349.462 25.6719 352.047 26.2254 352.68 27.5432C354.439 29.3004 356.963 35.8194 360.252 47.1003C360.043 42.2271 359.559 37.3697 358.801 32.5511C358.378 31.094 358.078 29.604 357.904 28.0967C357.904 26.858 358.96 26.0409 361.044 25.6192Z" fill="white"/>
<path d="M395.921 22.799C397.914 22.6658 399.91 23.0074 401.744 23.7955C403.579 24.5837 405.2 25.7959 406.474 27.3324C415.075 40.2474 415.075 51.5634 406.474 61.2804C402.46 64.0752 397.746 65.6996 392.861 65.972C389.037 65.9137 385.287 64.9181 381.939 63.0727C380.408 61.4737 379.599 55.271 379.511 44.4646C379.423 33.6581 380.004 27.7278 381.253 26.6735C382.75 25.6504 384.422 24.909 386.186 24.4858C389.313 23.3787 392.604 22.8084 395.921 22.799V22.799ZM393.758 41.249C393.196 44.9319 393.143 48.6743 393.6 52.3717C393.732 53.3733 394.655 53.8213 396.238 53.7159C397.655 53.6585 399.031 53.2215 400.222 52.4508C401.109 51.6367 401.77 50.6065 402.14 49.4608C402.51 48.3151 402.576 47.0931 402.332 45.9142C401.171 41.4862 398.691 39.3776 394.866 39.5621C394.365 39.6148 393.969 40.142 393.758 41.1699V41.249Z" fill="white"/>
<path d="M433.806 27.965C434.612 28.0444 435.384 28.3282 436.049 28.7895C436.714 29.2508 437.25 29.8743 437.606 30.6007C439.141 34.7019 439.875 39.0592 439.769 43.4366C439.879 45.192 439.879 46.9526 439.769 48.7081C439.552 52.1439 439.004 55.5509 438.133 58.8819C437.972 59.5182 437.642 60.0991 437.178 60.5631C436.713 61.0271 436.132 61.3569 435.495 61.5176C433.448 62.1068 431.314 62.3298 429.19 62.1766C428.044 62.1513 426.925 61.8234 425.947 61.2262C424.97 60.629 424.168 59.7838 423.623 58.7765C423.026 55.1702 422.735 51.5199 422.752 47.8646V45.2289C422.759 42.3893 422.961 39.5536 423.359 36.7419C423.605 34.8108 424.138 32.9274 424.942 31.1542C427.473 29.1599 430.584 28.0407 433.806 27.965Z" fill="white"/>
<path d="M468.816 24.5912C470.778 24.7417 472.664 25.4152 474.277 26.5417C476.262 28.5858 477.617 31.1566 478.182 33.948C478.869 36.9313 479.232 39.9801 479.263 43.0413C479.22 47.7569 478.814 52.4623 478.05 57.116C477.536 60.6931 475.825 63.9911 473.195 66.4728C472.262 66.8685 471.225 66.9517 470.241 66.71C468.079 66.2568 466.13 65.0977 464.7 63.4153C463.512 61.0541 463.045 58.3963 463.355 55.7718C463.355 55.5873 463.355 54.9811 463.487 53.9531H463.223H460.928C460.769 53.9531 460.69 54.0322 460.69 54.1903L461.297 59.1455C461.297 61.7812 460.769 63.3099 459.714 64.0216C459.091 64.258 458.428 64.3742 457.762 64.3642C454.853 64.4202 452.03 63.3858 449.847 61.4649C449.029 60.6742 448.317 57.4323 447.657 51.7655C447.511 50.8943 447.431 50.0131 447.42 49.1298C447.185 43.9851 447.928 38.8425 449.61 33.9744C450.073 32.5519 450.869 31.26 451.931 30.2053C454.526 27.7995 457.697 26.102 461.139 25.2765C463.645 24.6392 466.237 24.4079 468.816 24.5912V24.5912ZM460.321 44.8863L460.69 45.1235C463.513 44.7808 464.938 44.1746 464.938 43.3048C465.303 41.9139 465.303 40.4523 464.938 39.0613C464.806 38.2179 464.225 37.8489 463.249 37.9543C462.318 38.6109 461.602 39.5279 461.191 40.59C460.538 41.924 460.238 43.4033 460.321 44.8863V44.8863Z" fill="white"/>
<path fill-rule="evenodd" clip-rule="evenodd" d="M280.768 25.7656C282.406 24.2474 284.557 23.4037 286.79 23.4037C289.024 23.4037 291.175 24.2474 292.812 25.7656C294.437 27.2722 295.436 29.3323 295.613 31.5383C295.65 31.9292 295.658 32.3221 295.639 32.7139C295.652 32.9896 295.651 33.2658 295.636 33.5415C295.675 34.6405 295.509 35.7381 295.144 36.7777C294.741 37.9259 294.106 38.9787 293.277 39.8704C292.449 40.7621 291.445 41.4733 290.329 41.9597C289.213 42.4461 288.008 42.6971 286.79 42.6971C285.573 42.6971 284.368 42.4461 283.252 41.9597C282.136 41.4733 281.132 40.7621 280.303 39.8704C279.475 38.9788 278.839 37.926 278.437 36.7777C278.072 35.738 277.906 34.6404 277.945 33.5415C277.93 33.2658 277.929 32.9896 277.942 32.7139C277.922 32.3221 277.931 31.9292 277.968 31.5383C278.145 29.3323 279.144 27.2721 280.768 25.7656ZM291.552 31.8922L287.488 32.1946C287.474 32.0188 287.395 31.8545 287.266 31.7346C287.137 31.6147 286.967 31.548 286.79 31.548C286.614 31.548 286.444 31.6147 286.315 31.7346C286.185 31.8545 286.106 32.0188 286.093 32.1946L286.089 32.2471L286.084 32.2994V32.302L286.125 32.7052L286.085 33.1046L286.119 33.4512L286.093 33.8024C286.086 33.8983 286.099 33.9946 286.131 34.0852C286.162 34.1759 286.213 34.259 286.278 34.3295C286.343 34.3999 286.423 34.4561 286.511 34.4945C286.599 34.5329 286.694 34.5528 286.79 34.5528C286.887 34.5528 286.982 34.5329 287.07 34.4945C287.158 34.4561 287.237 34.3999 287.303 34.3295C287.368 34.2591 287.418 34.1759 287.45 34.0852C287.482 33.9945 287.495 33.8982 287.488 33.8024L287.461 33.4512L287.496 33.1046L287.456 32.7052L287.497 32.302V32.2994L291.552 31.8922Z" fill="#B55BEF"/>
<path d="M286.777 38.2706C289.414 38.2706 291.552 36.1347 291.552 33.5C291.552 30.8652 289.414 28.7293 286.777 28.7293C284.14 28.7293 282.002 30.8652 282.002 33.5C282.002 36.1347 284.14 38.2706 286.777 38.2706Z" fill="#400645"/>
<path d="M286.777 36.6628C289.414 36.6628 291.552 34.5269 291.552 31.8922C291.552 29.2574 289.414 27.1215 286.777 27.1215C284.14 27.1215 282.002 29.2574 282.002 31.8922C282.002 34.5269 284.14 36.6628 286.777 36.6628Z" fill="#FFE20D"/>
<path fill-rule="evenodd" clip-rule="evenodd" d="M425.212 8.76526C426.849 7.24704 429 6.40332 431.234 6.40332C433.468 6.40332 435.619 7.24704 437.256 8.76526C438.881 10.2718 439.88 12.332 440.057 14.538C440.094 14.9289 440.102 15.3217 440.082 15.7135C440.096 15.9892 440.095 16.2655 440.08 16.5411C440.119 17.64 439.952 18.7376 439.588 19.7774C439.185 20.9256 438.55 21.9784 437.721 22.8701C436.893 23.7617 435.889 24.4729 434.773 24.9593C433.657 25.4457 432.452 25.6968 431.234 25.6968C430.016 25.6968 428.812 25.4457 427.696 24.9593C426.579 24.473 425.576 23.7617 424.747 22.8701C423.918 21.9783 423.283 20.9255 422.881 19.7774C422.516 18.7378 422.349 17.6402 422.388 16.5411C422.373 16.2655 422.373 15.9893 422.386 15.7135C422.366 15.3217 422.375 14.9288 422.411 14.5379C422.589 12.3318 423.588 10.2718 425.212 8.76526ZM435.996 14.8918L431.931 15.1943C431.918 15.0184 431.839 14.8541 431.71 14.7342C431.58 14.6143 431.411 14.5477 431.234 14.5477C431.058 14.5477 430.888 14.6143 430.759 14.7342C430.629 14.8542 430.55 15.0185 430.537 15.1943L430.533 15.2467L430.528 15.299V15.3016L430.568 15.7048L430.529 16.1042L430.563 16.4508L430.537 16.8021C430.53 16.8978 430.542 16.994 430.574 17.0848C430.606 17.1757 430.656 17.2588 430.722 17.3291C430.787 17.3995 430.866 17.4557 430.955 17.4942C431.043 17.5326 431.138 17.5524 431.234 17.5524C431.33 17.5524 431.426 17.5326 431.514 17.4942C431.602 17.4558 431.681 17.3996 431.747 17.3291C431.812 17.2587 431.862 17.1755 431.894 17.0848C431.926 16.9942 431.938 16.8979 431.931 16.8021L431.905 16.4508L431.939 16.1042L431.9 15.7048L431.941 15.3016V15.299L435.996 14.8918Z" fill="white"/>
<path fill-rule="evenodd" clip-rule="evenodd" d="M425.212 11.48C426.849 9.96182 429 9.1181 431.234 9.1181C433.468 9.1181 435.619 9.96182 437.256 11.48C438.881 12.9866 439.88 15.0468 440.057 17.2527C440.094 17.6436 440.102 18.0365 440.082 18.4283C440.096 18.704 440.095 18.9802 440.08 19.2559C440.119 20.3548 439.952 21.4524 439.588 22.4922C439.185 23.6404 438.55 24.6932 437.721 25.5848C436.893 26.4764 435.889 27.1877 434.773 27.6741C433.657 28.1605 432.452 28.4115 431.234 28.4115C430.016 28.4115 428.812 28.1605 427.696 27.6741C426.579 27.1878 425.576 26.4765 424.747 25.5848C423.918 24.6931 423.283 23.6402 422.881 22.4922C422.516 21.4526 422.349 20.3549 422.388 19.2559C422.373 18.9803 422.373 18.704 422.386 18.4283C422.366 18.0365 422.375 17.6436 422.411 17.2527C422.589 15.0466 423.588 12.9865 425.212 11.48ZM435.996 17.6066L431.931 17.9091C431.918 17.7332 431.839 17.5689 431.71 17.449C431.58 17.3291 431.411 17.2625 431.234 17.2625C431.058 17.2625 430.888 17.3291 430.759 17.449C430.629 17.569 430.55 17.7333 430.537 17.9091L430.533 17.9615L430.528 18.0138V18.0164L430.568 18.4196L430.529 18.819L430.563 19.1656L430.537 19.5168C430.53 19.6125 430.542 19.7088 430.574 19.7996C430.606 19.8904 430.656 19.9736 430.722 20.0439C430.787 20.1143 430.866 20.1705 430.955 20.2089C431.043 20.2474 431.138 20.2672 431.234 20.2672C431.33 20.2672 431.426 20.2474 431.514 20.2089C431.602 20.1705 431.681 20.1144 431.747 20.0439C431.812 19.9735 431.862 19.8903 431.894 19.7996C431.926 19.709 431.938 19.6127 431.931 19.5168L431.905 19.1656L431.939 18.819L431.9 18.4196L431.941 18.0164V18.0138L435.996 17.6066Z" fill="#B55BEF"/>
<path d="M431.247 23.985C433.885 23.985 436.023 21.8491 436.023 19.2144C436.023 16.5796 433.885 14.4437 431.247 14.4437C428.61 14.4437 426.472 16.5796 426.472 19.2144C426.472 21.8491 428.61 23.985 431.247 23.985Z" fill="#400645"/>
<path d="M431.247 22.3772C433.885 22.3772 436.023 20.2413 436.023 17.6066C436.023 14.9718 433.885 12.8359 431.247 12.8359C428.61 12.8359 426.472 14.9718 426.472 17.6066C426.472 20.2413 428.61 22.3772 431.247 22.3772Z" fill="#FFE20D"/>
</g>
<defs>
<clipPath id="clip0_721_21487">
<rect width="500" height="84.1584" fill="white"/>
</clipPath>
</defs>
</svg>
