<?xml version="1.0" encoding="utf-8"?>
<!-- Generator: Adobe Illustrator 26.0.1, SVG Export Plug-In . SVG Version: 6.00 Build 0)  -->
<svg version="1.1" id="Layer_1" xmlns="http://www.w3.org/2000/svg" xmlns:xlink="http://www.w3.org/1999/xlink" x="0px" y="0px"
	 viewBox="0 0 150 50" style="enable-background:new 0 0 150 50;" xml:space="preserve">
<style type="text/css">
	.st0{fill-rule:evenodd;clip-rule:evenodd;fill:#FFFFFF;}
	.st1{fill:#EF474B;}
	.st2{clip-path:url(#SVGID_00000078008430733833550090000004276014603296313993_);fill:#FFFFFF;}
	.st3{clip-path:url(#SVGID_00000177464715276949555370000011042626855327642038_);}
	.st4{fill:#FFFFFF;}
	.st5{fill:#515151;}
</style>
<g>
	<path class="st0" d="M146,50H4c-2.2,0-4-1.8-4-4V4c0-2.2,1.8-4,4-4h142c2.2,0,4,1.8,4,4v42C150,48.2,148.2,50,146,50z"/>
</g>
<g>
	<g>
		<path d="M17,40.4c0-2.5,1.8-4.1,4.4-4.1c1.5,0,2.7,0.5,3.6,1.5l-1.6,1.5c-0.5-0.5-1.1-1-1.9-1c-1.1,0-1.8,0.8-1.8,1.9
			s0.7,1.9,1.8,1.9c0.7,0,1.2-0.3,1.6-1l1.6,1.5c-0.8,1-1.9,1.5-3.6,1.5C18.8,44.5,17,42.7,17,40.4z"/>
		<path d="M40.1,42.9h-3l-0.5,1.4h-2.7l3.4-7.8h2.6l3.4,7.8h-2.7L40.1,42.9z M39.3,41.1l-0.8-1.9l-0.7,1.9H39.3z"/>
		<path d="M52.5,43.7l0.8-1.9c0.7,0.4,1.8,0.7,2.6,0.7c0.7,0,1-0.1,1-0.4c0-1-4.4-0.1-4.4-3.2c0-1.5,1.2-2.6,3.7-2.6
			c1.1,0,2.2,0.3,3,0.7l-0.8,1.9c-0.8-0.4-1.5-0.5-2.2-0.5c-0.8,0-1,0.3-1,0.5c0,1,4.4,0.1,4.4,3c0,1.4-1.2,2.6-3.7,2.6
			C54.5,44.5,53.3,44.1,52.5,43.7z"/>
		<path d="M69.5,36.4h2.7v7.8h-2.7V36.4z"/>
		<path d="M90.4,36.4v7.8h-2.2l-3-3.6v3.6h-2.6v-7.8h2.2l3,3.6v-3.6C87.8,36.4,90.4,36.4,90.4,36.4z"/>
		<path d="M100.6,40.4c0-2.3,1.9-4.1,4.4-4.1s4.4,1.8,4.4,4.1c0,2.3-1.9,4.1-4.4,4.1S100.6,42.7,100.6,40.4z M106.7,40.4
			c0-1.2-0.8-1.9-1.8-1.9c-1,0-1.8,0.7-1.8,1.9c0,1.2,0.8,1.9,1.8,1.9C106,42.3,106.7,41.6,106.7,40.4z"/>
		<path d="M119.1,43.7l0.8-1.9c0.7,0.4,1.8,0.7,2.6,0.7c0.7,0,1-0.1,1-0.4c0-1-4.4-0.1-4.4-3.2c0-1.5,1.2-2.6,3.7-2.6
			c1.1,0,2.2,0.3,3,0.7l-0.8,1.9c-0.8-0.4-1.5-0.5-2.2-0.5c-0.8,0-1,0.3-1,0.5c0,1,4.4,0.1,4.4,3c0,1.4-1.2,2.6-3.7,2.6
			C121.2,44.5,119.9,44.1,119.1,43.7z"/>
	</g>
	<polygon class="st1" points="87,13.5 38.5,13.5 28.7,13.6 19.8,13.5 15.5,13.5 15.5,34.2 87,34.2 	"/>
	<rect x="86.7" y="13.5" class="st1" width="40.4" height="20.7"/>
	<g>
		<g>
			<g>
				<defs>
					<rect id="SVGID_1_" x="86.7" y="13.5" width="40.4" height="20.7"/>
				</defs>
				<clipPath id="SVGID_00000132804933014926383520000009662664978929178548_">
					<use xlink:href="#SVGID_1_"  style="overflow:visible;"/>
				</clipPath>
				<polygon style="clip-path:url(#SVGID_00000132804933014926383520000009662664978929178548_);fill:#FFFFFF;" points="99.3,21.3 
					99.3,41.9 94,41.9 94,25.6 89.7,25.6 89.7,21.3 				"/>
			</g>
		</g>
		<g>
			<g>
				<defs>
					<rect id="SVGID_00000048484677568371603140000018172172070892198584_" x="86.7" y="13.5" width="40.4" height="20.7"/>
				</defs>
				<clipPath id="SVGID_00000147905204529928174380000011803521197737142933_">
					<use xlink:href="#SVGID_00000048484677568371603140000018172172070892198584_"  style="overflow:visible;"/>
				</clipPath>
				<g style="clip-path:url(#SVGID_00000147905204529928174380000011803521197737142933_);">
					<path class="st4" d="M112.9,21.3c6.7,0,9.1,4.4,9.1,10.3c0,6-2.3,10.4-9.1,10.4s-9.1-4.4-9.1-10.4S106.2,21.3,112.9,21.3z
						 M112.9,25.1c-3,0-3.4,3-3.4,6.3c0,3.6,0.4,6.5,3.4,6.5s3.4-2.9,3.4-6.5C116.4,28.2,115.9,25.1,112.9,25.1z"/>
				</g>
			</g>
		</g>
	</g>
	<circle cx="131.5" cy="15.7" r="3.2"/>
	<ellipse transform="matrix(0.6575 -0.7535 0.7535 0.6575 34.7008 104.6421)" class="st4" cx="132.4" cy="14.2" rx="0.8" ry="1.1"/>
	<ellipse class="st4" cx="133.5" cy="15.7" rx="0.4" ry="0.4"/>
	<path d="M131.2,27.1l-0.3,1.6c-0.1,0.7-0.8,1.2-1.5,1.1c-0.7-0.1-1.2-0.8-1.1-1.5l0.1-1.4h-1.4v7.3h3.8c0.7,0,1.2-0.5,1.2-1.2v-4.8
		C132,27.6,131.7,27.2,131.2,27.1z"/>
	<path d="M129.5,29.4L129.5,29.4c-0.5-0.1-1-0.5-0.8-1.1l1.5-11.8l1.9,0.3l-1.5,11.8C130.5,29.1,130.1,29.4,129.5,29.4z"/>
	<g>
		<path class="st4" d="M22.1,17.5h-6.7v-4h18.1v4h-6.6v16.9h-4.8V17.5z"/>
		<path class="st4" d="M42.3,33.2c-1.8-1-3.2-2.2-4.1-3.8s-1.5-3.4-1.5-5.5s0.5-3.8,1.5-5.5c1-1.6,2.3-2.9,4.1-3.8
			c1.8-1,3.7-1.4,5.9-1.4s4.1,0.4,5.8,1.4c1.8,1,3,2.2,4.1,3.8c1.1,1.6,1.5,3.4,1.5,5.5s-0.5,3.8-1.5,5.5c-1,1.6-2.3,2.9-4.1,3.8
			s-3.7,1.4-5.8,1.4C46,34.6,44.1,34.2,42.3,33.2z M51.5,29.7c1-0.5,1.8-1.4,2.3-2.3c0.5-1,0.8-2.2,0.8-3.4s-0.3-2.5-0.8-3.4
			c-0.5-1-1.4-1.8-2.3-2.3s-2.1-0.8-3.3-0.8s-2.3,0.3-3.3,0.8c-1,0.5-1.8,1.4-2.3,2.3c-0.5,1-0.8,2.2-0.8,3.4s0.3,2.5,0.8,3.4
			c0.5,1,1.4,1.8,2.3,2.3s2.1,0.8,3.3,0.8C49.4,30.6,50.5,30.4,51.5,29.7z"/>
		<path class="st4" d="M79.3,14.4c1.4,0.5,2.5,1.5,3.2,2.6c0.7,1.1,1.1,2.5,1.1,4s-0.4,2.9-1.1,4c-0.7,1.1-1.8,2.1-3.2,2.6
			c-1.4,0.5-3,1-4.8,1h-4.3v5.8h-4.8V13.5h9.1C76.4,13.5,77.9,13.7,79.3,14.4z M77.5,23.8c0.7-0.7,1.1-1.5,1.1-2.6
			c0-1.2-0.4-2.1-1.1-2.7c-0.8-0.7-1.9-1-3.3-1h-4v7.1h4C75.7,24.6,76.8,24.3,77.5,23.8z"/>
	</g>
</g>
<g>
	<path class="st5" d="M54,5.7c0.4,0,0.8,0.1,1.1,0.2s0.5,0.3,0.6,0.5C55.9,6.6,56,6.8,56,7.2c0,0.2,0,0.4-0.1,0.6s-0.2,0.3-0.3,0.4
		s-0.3,0.2-0.5,0.3l1.4,2.1h-1.2l-1.2-1.9h-0.6v1.9h-1V5.7H54z M54,6.5h-0.3v1.3H54c0.3,0,0.6-0.1,0.7-0.2S55,7.4,55,7.2
		c0-0.2-0.1-0.4-0.2-0.5C54.6,6.6,54.3,6.5,54,6.5z"/>
	<path class="st5" d="M60,10.6h-2.8V5.7H60v0.9h-1.8v1.1h1.7v0.9h-1.7v1.3H60V10.6z"/>
	<path class="st5" d="M64.9,5.7l-1.7,4.9h-1.1l-1.7-4.9h1.1l0.9,2.9c0,0,0,0.1,0.1,0.3c0,0.1,0.1,0.3,0.1,0.4c0,0.2,0.1,0.3,0.1,0.4
		c0-0.1,0-0.2,0.1-0.4c0-0.2,0.1-0.3,0.1-0.4c0-0.1,0.1-0.2,0.1-0.3l0.9-2.9H64.9z"/>
	<path class="st5" d="M65.5,10.6V5.7h1v4.9H65.5z"/>
	<path class="st5" d="M70.6,10.6h-2.8V5.7h2.8v0.9h-1.8v1.1h1.7v0.9h-1.7v1.3h1.8V10.6z"/>
	<path class="st5" d="M77.7,5.7l-1.3,4.9h-1.2L74.6,8c0,0,0-0.1-0.1-0.2c0-0.1,0-0.2-0.1-0.3s0-0.2-0.1-0.3c0-0.1,0-0.2,0-0.3
		c0,0.1,0,0.1,0,0.3c0,0.1,0,0.2-0.1,0.3c0,0.1,0,0.2-0.1,0.3s0,0.2-0.1,0.2l-0.7,2.6h-1.2L71,5.7h1l0.6,2.7c0,0.1,0,0.2,0.1,0.3
		c0,0.1,0,0.2,0.1,0.4c0,0.1,0,0.2,0.1,0.4c0,0.1,0,0.2,0,0.3c0-0.1,0-0.2,0-0.3C73,9.2,73,9.1,73,9c0-0.1,0-0.2,0.1-0.3
		c0-0.1,0-0.2,0.1-0.2l0.7-2.8h1l0.7,2.8c0,0.1,0,0.1,0.1,0.2c0,0.1,0,0.2,0.1,0.3c0,0.1,0,0.2,0.1,0.3c0,0.1,0,0.2,0,0.3
		c0-0.1,0-0.2,0.1-0.4c0-0.2,0.1-0.3,0.1-0.5C76,8.6,76,8.5,76,8.4l0.6-2.7H77.7z"/>
	<path class="st5" d="M81.2,10.6h-2.8V5.7h2.8v0.9h-1.8v1.1H81v0.9h-1.7v1.3h1.8V10.6z"/>
	<path class="st5" d="M86.3,8.1c0,0.6-0.1,1-0.3,1.4c-0.2,0.4-0.5,0.7-0.9,0.8c-0.4,0.2-0.9,0.3-1.5,0.3h-1.4V5.7h1.5
		c0.5,0,1,0.1,1.3,0.3c0.4,0.2,0.7,0.5,0.9,0.8S86.3,7.6,86.3,8.1z M85.2,8.1c0-0.4-0.1-0.7-0.2-0.9c-0.1-0.2-0.3-0.4-0.5-0.5
		s-0.5-0.2-0.8-0.2h-0.6v3.2h0.4c0.5,0,0.9-0.1,1.1-0.4C85.1,9.1,85.2,8.7,85.2,8.1z"/>
	<path class="st5" d="M89.1,5.7h1.5c0.7,0,1.2,0.1,1.5,0.3c0.3,0.2,0.5,0.5,0.5,1c0,0.2,0,0.4-0.1,0.5c-0.1,0.2-0.1,0.3-0.3,0.4
		C92.1,7.9,92,8,91.8,8v0c0.2,0,0.3,0.1,0.4,0.2s0.2,0.2,0.3,0.4c0.1,0.2,0.1,0.4,0.1,0.6c0,0.3-0.1,0.6-0.2,0.8s-0.4,0.4-0.6,0.5
		c-0.3,0.1-0.6,0.2-1,0.2h-1.8V5.7z M90.1,7.6h0.6c0.3,0,0.5,0,0.6-0.1s0.2-0.2,0.2-0.4c0-0.2-0.1-0.3-0.2-0.4
		c-0.1-0.1-0.4-0.1-0.7-0.1h-0.5V7.6z M90.1,8.5v1.3h0.7c0.3,0,0.5-0.1,0.7-0.2c0.1-0.1,0.2-0.3,0.2-0.5c0-0.1,0-0.2-0.1-0.3
		c-0.1-0.1-0.1-0.2-0.3-0.2S91,8.5,90.8,8.5H90.1z"/>
	<path class="st5" d="M95.2,7.7l1-2h1.1l-1.6,3v1.9h-1V8.7l-1.6-3h1.1L95.2,7.7z"/>
</g>
</svg>
