<?xml version="1.0" encoding="utf-8"?>
<!-- Generator: Adobe Illustrator 26.0.1, SVG Export Plug-In . SVG Version: 6.00 Build 0)  -->
<svg version="1.1" id="Layer_1" xmlns="http://www.w3.org/2000/svg" xmlns:xlink="http://www.w3.org/1999/xlink" x="0px" y="0px"
	 viewBox="0 0 150 50" style="enable-background:new 0 0 150 50;" xml:space="preserve">
<style type="text/css">
	.st0{fill-rule:evenodd;clip-rule:evenodd;fill:#121212;}
	.st1{fill:#FFFFFF;}
	.st2{fill:#EF4B4F;}
</style>
<g>
	<g>
		<path class="st0" d="M146,50H4c-2.2,0-4-1.8-4-4V4c0-2.2,1.8-4,4-4h142c2.2,0,4,1.8,4,4v42C150,48.2,148.2,50,146,50z"/>
	</g>
</g>
<g>
	<g>
		<path class="st1" d="M63.7,8.7l-0.3-1.1h-1.8l-0.3,1.1h-1.1l1.7-4.8h1.2l1.7,4.8H63.7z M63.1,6.7l-0.3-1.1c0-0.1-0.1-0.2-0.1-0.3
			c0-0.1-0.1-0.2-0.1-0.4s-0.1-0.2-0.1-0.3c0,0.1-0.1,0.2-0.1,0.3c0,0.1-0.1,0.3-0.1,0.4c0,0.1-0.1,0.2-0.1,0.3l-0.3,1.1H63.1z"/>
		<path class="st1" d="M66.9,3.9c0.6,0,1.1,0.1,1.4,0.4c0.3,0.3,0.4,0.6,0.4,1.1c0,0.2,0,0.4-0.1,0.6c-0.1,0.2-0.2,0.4-0.3,0.5
			c-0.1,0.1-0.3,0.3-0.6,0.4C67.5,6.9,67.2,7,66.9,7h-0.4v1.7h-1V3.9H66.9z M66.9,4.7h-0.5v1.4h0.3c0.2,0,0.4,0,0.5-0.1
			c0.1-0.1,0.2-0.1,0.3-0.2c0.1-0.1,0.1-0.2,0.1-0.4c0-0.2-0.1-0.4-0.2-0.5C67.4,4.8,67.2,4.7,66.9,4.7z"/>
		<path class="st1" d="M71.2,3.9c0.6,0,1.1,0.1,1.4,0.4C72.8,4.5,73,4.9,73,5.4c0,0.2,0,0.4-0.1,0.6c-0.1,0.2-0.2,0.4-0.3,0.5
			c-0.1,0.1-0.3,0.3-0.6,0.4C71.7,6.9,71.4,7,71.1,7h-0.4v1.7h-1V3.9H71.2z M71.1,4.7h-0.5v1.4H71c0.2,0,0.4,0,0.5-0.1
			c0.1-0.1,0.2-0.1,0.3-0.2c0.1-0.1,0.1-0.2,0.1-0.4c0-0.2-0.1-0.4-0.2-0.5C71.6,4.8,71.4,4.7,71.1,4.7z"/>
		<path class="st1" d="M75.3,3.9c0.4,0,0.8,0.1,1.1,0.2c0.3,0.1,0.5,0.3,0.6,0.5c0.1,0.2,0.2,0.5,0.2,0.8c0,0.2,0,0.4-0.1,0.6
			C77,6,76.9,6.2,76.8,6.3s-0.3,0.2-0.4,0.3l1.4,2.1h-1.1l-1.2-1.8h-0.5v1.8h-1V3.9H75.3z M75.2,4.7h-0.3V6h0.3
			c0.3,0,0.6-0.1,0.7-0.2c0.1-0.1,0.2-0.3,0.2-0.5c0-0.2-0.1-0.4-0.2-0.5C75.8,4.7,75.5,4.7,75.2,4.7z"/>
		<path class="st1" d="M82.7,6.3c0,0.4,0,0.7-0.1,1s-0.2,0.6-0.4,0.8c-0.2,0.2-0.4,0.4-0.7,0.5c-0.3,0.1-0.6,0.2-1,0.2
			c-0.4,0-0.7-0.1-1-0.2c-0.3-0.1-0.5-0.3-0.7-0.5c-0.2-0.2-0.3-0.5-0.4-0.8s-0.1-0.6-0.1-1c0-0.5,0.1-0.9,0.2-1.3s0.4-0.7,0.8-0.9
			c0.3-0.2,0.8-0.3,1.3-0.3c0.5,0,1,0.1,1.3,0.3c0.3,0.2,0.6,0.5,0.8,0.9S82.7,5.8,82.7,6.3z M79.2,6.3c0,0.3,0,0.6,0.1,0.9
			c0.1,0.2,0.2,0.4,0.4,0.6c0.2,0.1,0.4,0.2,0.7,0.2c0.3,0,0.5-0.1,0.7-0.2c0.2-0.1,0.3-0.3,0.4-0.6c0.1-0.2,0.1-0.5,0.1-0.9
			c0-0.5-0.1-0.9-0.3-1.2c-0.2-0.3-0.5-0.4-0.9-0.4c-0.3,0-0.5,0.1-0.7,0.2c-0.2,0.1-0.3,0.3-0.4,0.6S79.2,5.9,79.2,6.3z"/>
		<path class="st1" d="M87.5,3.9l-1.6,4.8h-1.1l-1.6-4.8h1L85,6.7c0,0,0,0.1,0.1,0.3s0.1,0.3,0.1,0.4c0,0.1,0.1,0.3,0.1,0.4
			c0-0.1,0-0.2,0.1-0.4c0-0.1,0.1-0.3,0.1-0.4c0-0.1,0.1-0.2,0.1-0.3l0.9-2.9H87.5z"/>
		<path class="st1" d="M90.9,8.7h-2.8V3.9h2.8v0.8h-1.8v1.1h1.6v0.8h-1.6v1.2h1.8V8.7z"/>
		<path class="st1" d="M95.9,6.2c0,0.5-0.1,1-0.3,1.4c-0.2,0.4-0.5,0.6-0.9,0.8c-0.4,0.2-0.9,0.3-1.4,0.3h-1.4V3.9h1.5
			c0.5,0,0.9,0.1,1.3,0.3c0.4,0.2,0.7,0.4,0.9,0.8C95.8,5.3,95.9,5.7,95.9,6.2z M94.8,6.2c0-0.4-0.1-0.6-0.2-0.9
			c-0.1-0.2-0.3-0.4-0.5-0.5c-0.2-0.1-0.5-0.2-0.8-0.2h-0.5v3.1h0.4c0.5,0,0.9-0.1,1.1-0.4C94.7,7.2,94.8,6.8,94.8,6.2z"/>
		<path class="st1" d="M98.6,3.9h1.5c0.6,0,1.1,0.1,1.5,0.3c0.3,0.2,0.5,0.5,0.5,0.9c0,0.2,0,0.3-0.1,0.5c-0.1,0.1-0.1,0.3-0.3,0.4
			c-0.1,0.1-0.2,0.2-0.4,0.2v0c0.2,0,0.3,0.1,0.4,0.2c0.1,0.1,0.2,0.2,0.3,0.3c0.1,0.2,0.1,0.4,0.1,0.6c0,0.3-0.1,0.5-0.2,0.8
			c-0.1,0.2-0.3,0.4-0.6,0.5c-0.3,0.1-0.6,0.2-0.9,0.2h-1.8V3.9z M99.6,5.8h0.6c0.3,0,0.5,0,0.6-0.1c0.1-0.1,0.2-0.2,0.2-0.4
			c0-0.2-0.1-0.3-0.2-0.4c-0.1-0.1-0.3-0.1-0.6-0.1h-0.5V5.8z M99.6,6.6v1.3h0.7c0.3,0,0.5-0.1,0.6-0.2c0.1-0.1,0.2-0.3,0.2-0.5
			c0-0.1,0-0.2-0.1-0.3c-0.1-0.1-0.1-0.2-0.3-0.2c-0.1-0.1-0.3-0.1-0.5-0.1H99.6z"/>
		<path class="st1" d="M104.7,5.8l1-2h1.1l-1.6,2.9v1.9h-1V6.8l-1.6-3h1.1L104.7,5.8z"/>
	</g>
	<g>
		<path class="st1" d="M21.8,25.9l8.1-7c0,0,5-3.5,5.2-3.7c0.2-0.2,6.2,3.7,6.2,3.7l8.1,7L48.1,35l-5.3,3.1L38,36.7l-0.6,0.7h-4.6
			l-2.9,1.4l-5.4-2.5l-3.7-7L21.8,25.9z"/>
		<path class="st2" d="M35.8,39.6c0,0-0.6,4.2-4.9,6.6c4.9,0,4.9,0,4.9,0s0,0,4.9,0C36.4,43.8,35.8,39.6,35.8,39.6z"/>
		<path class="st2" d="M49.7,24.4L49.7,24.4L49.7,24.4c-0.1-0.1-0.1-0.1-0.1-0.1L35.8,10.7L22.5,23.9c-0.3,0.3-0.6,0.6-0.9,0.9l0,0
			c0,0,0,0,0,0.1c-1.5,1.7-2.4,3.9-2.4,6.4c0,5.4,4.4,9.7,9.7,9.7c1,0,2-0.2,2.9-0.4c2.7-1,3.6-3.5,2.9-4.2c-0.9-0.9-4.5-0.1-5,0
			c0.1-0.5,0.3-1,0.4-1.5c0.1-0.3,0.1-0.6-0.2-0.8c-0.3-0.3-0.6-0.5-0.9-0.7c-0.4-0.3-0.8-0.6-1.1-0.9c-0.4-0.3-0.7-0.6-1.1-0.9
			c-0.3-0.3-0.7-0.5-1-0.8c-0.3-0.3-0.7-0.6-1-0.8c-0.1-0.1-0.3-0.2-0.4-0.3c0.1,0,0.1-0.1,0.1-0.1c0.3-0.2,0.7-0.3,1-0.5
			c0.2-0.1,0.3-0.2,0.3-0.4c-0.1-0.3-0.1-0.5-0.2-0.7c-0.2-0.7-0.4-1.3-0.5-2c-0.1-0.3-0.2-0.6-0.3-0.9c0,0,0.1,0,0.1,0
			c1,0.2,2,0.4,3,0.6c0.2,0,0.5,0,0.6-0.4c0-0.2,0.1-0.4,0.2-0.6c0.1-0.3,0.2-0.5,0.2-0.8c0.2,0.2,0.4,0.5,0.6,0.7
			c0.4,0.4,0.8,0.9,1.2,1.3c0.2,0.2,0.4,0.4,0.6,0.7c0.1,0.1,0.3,0.3,0.5,0.4c0.2,0.1,0.3,0.1,0.5-0.1c0.2-0.2,0.1-0.4,0.1-0.6
			c0-0.3-0.1-0.7-0.2-1c-0.1-0.8-0.3-1.6-0.4-2.3c-0.1-0.7-0.3-1.3-0.4-2c0-0.1-0.1-0.3-0.1-0.5c0.4,0.2,0.9,0.4,1.3,0.7
			c0.2,0.1,0.4,0.2,0.6,0.2c0.2,0,0.4,0,0.5-0.2c0.3-0.5,0.5-0.9,0.8-1.4c0.3-0.6,0.7-1.2,1-1.8c0.1-0.2,0.2-0.3,0.3-0.6
			c0.1,0.2,0.2,0.4,0.3,0.6c0.3,0.6,0.7,1.2,1,1.8c0.3,0.5,0.5,0.9,0.8,1.4c0.1,0.2,0.3,0.2,0.5,0.2c0.2,0,0.4-0.1,0.6-0.2
			c0.4-0.2,0.8-0.4,1.3-0.7c0,0.2-0.1,0.3-0.1,0.5c-0.1,0.7-0.3,1.3-0.4,2c-0.1,0.8-0.3,1.6-0.4,2.3c-0.1,0.3-0.1,0.7-0.2,1
			c0,0.2-0.1,0.4,0.1,0.6c0.1,0.2,0.3,0.2,0.5,0.1c0.2-0.1,0.3-0.2,0.5-0.4c0.2-0.2,0.4-0.4,0.6-0.7c0.4-0.4,0.8-0.9,1.2-1.3
			c0.2-0.2,0.4-0.4,0.6-0.7c0.1,0.3,0.2,0.6,0.2,0.8c0.1,0.2,0.1,0.4,0.2,0.6c0.1,0.4,0.4,0.4,0.6,0.4c1-0.2,2-0.4,3-0.6
			c0,0,0.1,0,0.1,0c-0.1,0.3-0.2,0.6-0.3,0.9c-0.2,0.7-0.4,1.3-0.5,2c-0.1,0.2-0.1,0.5-0.2,0.7c0,0.2,0.1,0.3,0.3,0.4
			c0.3,0.2,0.7,0.3,1,0.5c0,0,0.1,0,0.1,0.1c-0.2,0.1-0.3,0.2-0.4,0.3c-0.3,0.3-0.7,0.6-1,0.8c-0.3,0.3-0.7,0.5-1,0.8
			c-0.4,0.3-0.7,0.6-1.1,0.9c-0.4,0.3-0.8,0.6-1.1,0.9c-0.3,0.2-0.6,0.5-0.9,0.7c-0.2,0.2-0.3,0.5-0.2,0.8c0.1,0.5,0.3,1,0.4,1.5
			c-0.5-0.1-4.2-0.8-5,0c-0.7,0.7-0.2,2.9,2.5,4c1,0.4,2.2,0.6,3.3,0.6c5.4,0,9.7-4.4,9.7-9.7C52.4,28.6,51.4,26.2,49.7,24.4z"/>
		<g>
			<path class="st1" d="M60.4,24.6c-1.1-0.6-1.9-1.4-2.5-2.4c-0.6-1-0.9-2.2-0.9-3.4c0-1.3,0.3-2.4,0.9-3.4c0.6-1,1.5-1.8,2.5-2.4
				c1.1-0.6,2.3-0.9,3.7-0.9c1.4,0,2.6,0.3,3.7,0.9c1.1,0.6,1.9,1.4,2.5,2.4c0.6,1,0.9,2.2,0.9,3.4s-0.3,2.4-0.9,3.4
				c-0.6,1-1.5,1.8-2.5,2.4c-1.1,0.6-2.3,0.9-3.7,0.9C62.7,25.5,61.5,25.2,60.4,24.6z M65.8,22c0.5-0.3,0.9-0.7,1.2-1.3
				c0.3-0.6,0.5-1.2,0.5-1.9s-0.2-1.4-0.5-1.9c-0.3-0.6-0.7-1-1.2-1.3c-0.5-0.3-1.1-0.5-1.8-0.5c-0.6,0-1.2,0.2-1.8,0.5
				c-0.5,0.3-0.9,0.7-1.2,1.3c-0.3,0.6-0.5,1.2-0.5,1.9s0.2,1.4,0.5,1.9c0.3,0.6,0.7,1,1.2,1.3c0.5,0.3,1.1,0.5,1.8,0.5
				C64.7,22.5,65.3,22.3,65.8,22z"/>
			<path class="st1" d="M85.3,12.4v12.8h-3l-5.7-6.8v6.8h-3.6V12.4h3l5.7,6.8v-6.8H85.3z"/>
			<path class="st1" d="M87.9,12.4h3.6v10h6.1v2.9h-9.7L87.9,12.4L87.9,12.4z"/>
			<path class="st1" d="M99,12.4h3.6v12.8H99V12.4z"/>
			<path class="st1" d="M117.5,12.4v12.8h-3l-5.7-6.8v6.8h-3.6V12.4h3l5.7,6.8v-6.8H117.5z"/>
			<path class="st1" d="M130.3,22.4v2.8H120V12.4h10.1v2.8h-6.5v2.2h5.7v2.7h-5.7v2.3L130.3,22.4L130.3,22.4z"/>
			<path class="st1" d="M59.7,37.4c-0.9-0.5-1.6-1.1-2.1-2c-0.5-0.9-0.8-1.8-0.8-2.9c0-1.1,0.3-2.1,0.8-2.9c0.5-0.9,1.2-1.5,2.1-2
				c0.9-0.5,1.9-0.7,3.1-0.7c1,0,1.9,0.2,2.7,0.5s1.5,0.9,2,1.5l-1.9,1.8c-0.7-0.8-1.6-1.3-2.5-1.3c-0.6,0-1.1,0.1-1.6,0.4
				c-0.5,0.3-0.8,0.6-1.1,1.1c-0.3,0.5-0.4,1-0.4,1.6c0,0.6,0.1,1.1,0.4,1.6c0.3,0.5,0.6,0.8,1.1,1.1c0.5,0.3,1,0.4,1.6,0.4
				c1,0,1.8-0.4,2.5-1.3l1.9,1.8c-0.5,0.7-1.2,1.2-2,1.5s-1.7,0.5-2.7,0.5C61.7,38.1,60.6,37.9,59.7,37.4z"/>
			<path class="st1" d="M75.9,35.8h-4.6l-0.8,2.1h-3.1l4.8-10.8h3l4.8,10.8h-3.2L75.9,35.8z M75,33.5l-1.4-3.5l-1.4,3.5H75z"/>
			<path class="st1" d="M82,37.8c-0.8-0.2-1.5-0.5-2-0.9l1-2.3c0.5,0.3,1,0.6,1.7,0.8s1.3,0.3,1.9,0.3c1.2,0,1.8-0.3,1.8-0.9
				c0-0.3-0.2-0.5-0.5-0.7s-0.9-0.3-1.6-0.5c-0.8-0.2-1.5-0.4-2-0.6c-0.5-0.2-1-0.5-1.4-1c-0.4-0.4-0.6-1-0.6-1.8
				c0-0.7,0.2-1.3,0.5-1.8c0.4-0.5,0.9-1,1.6-1.3c0.7-0.3,1.6-0.5,2.6-0.5c0.7,0,1.4,0.1,2.1,0.2c0.7,0.2,1.3,0.4,1.8,0.7L88,30.1
				c-1-0.6-2-0.8-3-0.8c-0.6,0-1.1,0.1-1.3,0.3c-0.3,0.2-0.4,0.4-0.4,0.7c0,0.3,0.2,0.5,0.5,0.6s0.9,0.3,1.6,0.4
				c0.8,0.2,1.5,0.4,2,0.6c0.5,0.2,1,0.5,1.4,1s0.6,1,0.6,1.8c0,0.6-0.2,1.2-0.5,1.8c-0.4,0.5-0.9,0.9-1.6,1.3
				c-0.7,0.3-1.6,0.5-2.6,0.5C83.7,38.1,82.8,38,82,37.8z"/>
			<path class="st1" d="M90.8,27.1h3.1v10.8h-3.1L90.8,27.1L90.8,27.1z"/>
			<path class="st1" d="M106.3,27.1v10.8h-2.5L99,32.1v5.8h-3V27.1h2.5l4.8,5.8v-5.8H106.3z"/>
			<path class="st1" d="M110.8,37.4c-0.9-0.5-1.6-1.2-2.1-2c-0.5-0.9-0.8-1.8-0.8-2.9c0-1.1,0.3-2,0.8-2.9s1.2-1.5,2.1-2
				s1.9-0.7,3.1-0.7s2.2,0.2,3.1,0.7s1.6,1.2,2.1,2c0.5,0.9,0.8,1.8,0.8,2.9c0,1.1-0.3,2-0.8,2.9c-0.5,0.9-1.2,1.5-2.1,2
				c-0.9,0.5-1.9,0.7-3.1,0.7S111.8,37.9,110.8,37.4z M115.4,35.2c0.4-0.3,0.8-0.6,1.1-1.1c0.3-0.5,0.4-1,0.4-1.6
				c0-0.6-0.1-1.1-0.4-1.6c-0.3-0.5-0.6-0.8-1.1-1.1s-0.9-0.4-1.5-0.4s-1,0.1-1.5,0.4s-0.8,0.6-1.1,1.1c-0.3,0.5-0.4,1-0.4,1.6
				c0,0.6,0.1,1.1,0.4,1.6c0.3,0.5,0.6,0.8,1.1,1.1s0.9,0.4,1.5,0.4S115,35.4,115.4,35.2z"/>
			<path class="st1" d="M122.8,37.8c-0.8-0.2-1.5-0.5-2-0.9l1-2.3c0.5,0.3,1,0.6,1.7,0.8c0.6,0.2,1.3,0.3,1.9,0.3
				c1.2,0,1.8-0.3,1.8-0.9c0-0.3-0.2-0.5-0.5-0.7c-0.3-0.1-0.9-0.3-1.6-0.5c-0.8-0.2-1.5-0.4-2-0.6c-0.5-0.2-1-0.5-1.4-1
				c-0.4-0.4-0.6-1-0.6-1.8c0-0.7,0.2-1.3,0.5-1.8c0.4-0.5,0.9-1,1.6-1.3c0.7-0.3,1.6-0.5,2.6-0.5c0.7,0,1.4,0.1,2.1,0.2
				c0.7,0.2,1.3,0.4,1.8,0.7l-0.9,2.3c-1-0.6-2-0.8-3-0.8c-0.6,0-1.1,0.1-1.3,0.3c-0.3,0.2-0.4,0.4-0.4,0.7c0,0.3,0.2,0.5,0.5,0.6
				c0.3,0.1,0.9,0.3,1.6,0.4c0.8,0.2,1.5,0.4,2,0.6c0.5,0.2,1,0.5,1.4,1c0.4,0.4,0.6,1,0.6,1.8c0,0.6-0.2,1.2-0.5,1.8
				c-0.4,0.5-0.9,0.9-1.6,1.3c-0.7,0.3-1.6,0.5-2.6,0.5C124.5,38.1,123.6,38,122.8,37.8z"/>
		</g>
		<g>
			<path class="st1" d="M58.5,45.7c-0.3-0.2-0.5-0.4-0.7-0.7c-0.2-0.3-0.3-0.6-0.3-1s0.1-0.7,0.3-1c0.2-0.3,0.4-0.5,0.7-0.7
				s0.6-0.2,1-0.2c0.4,0,0.7,0.1,1,0.2c0.3,0.2,0.5,0.4,0.7,0.7c0.2,0.3,0.3,0.6,0.3,1s-0.1,0.7-0.3,1c-0.2,0.3-0.4,0.5-0.7,0.7
				c-0.3,0.2-0.6,0.2-1,0.2C59.1,46,58.8,45.9,58.5,45.7z M60.1,45.2c0.2-0.1,0.3-0.3,0.5-0.5s0.2-0.4,0.2-0.7s-0.1-0.5-0.2-0.7
				c-0.1-0.2-0.3-0.3-0.5-0.5c-0.2-0.1-0.4-0.2-0.7-0.2c-0.2,0-0.5,0.1-0.7,0.2c-0.2,0.1-0.3,0.3-0.5,0.5c-0.1,0.2-0.2,0.4-0.2,0.7
				s0.1,0.5,0.2,0.7c0.1,0.2,0.3,0.3,0.5,0.5s0.4,0.2,0.7,0.2C59.7,45.4,59.9,45.3,60.1,45.2z"/>
			<path class="st1" d="M66.4,42.3v3.6h-0.6l-2-2.5v2.5h-0.7v-3.6h0.6l2,2.5v-2.5H66.4z"/>
			<path class="st1" d="M68.5,42.3h0.7v3.1h1.9v0.6h-2.6V42.3z"/>
			<path class="st1" d="M72.7,42.3h0.7v3.6h-0.7V42.3z"/>
			<path class="st1" d="M78.6,42.3v3.6h-0.6l-2-2.5v2.5h-0.7v-3.6H76l2,2.5v-2.5H78.6z"/>
			<path class="st1" d="M83.4,45.4v0.6h-2.7v-3.6h2.6v0.6h-2v0.9h1.7v0.6h-1.7v1C81.4,45.4,83.4,45.4,83.4,45.4z"/>
			<path class="st1" d="M85.1,43.8h1.4v0.5h-1.4V43.8z"/>
			<path class="st1" d="M89.2,45.7c-0.3-0.2-0.5-0.4-0.7-0.7s-0.3-0.6-0.3-1s0.1-0.7,0.3-1c0.2-0.3,0.4-0.5,0.7-0.7
				c0.3-0.2,0.6-0.2,1-0.2c0.3,0,0.6,0.1,0.8,0.2s0.5,0.3,0.6,0.4l-0.4,0.4c-0.3-0.3-0.6-0.4-1-0.4c-0.2,0-0.5,0.1-0.7,0.2
				s-0.3,0.3-0.5,0.5c-0.1,0.2-0.2,0.4-0.2,0.7s0.1,0.5,0.2,0.7c0.1,0.2,0.3,0.3,0.5,0.5s0.4,0.2,0.7,0.2c0.4,0,0.7-0.1,1-0.4
				l0.4,0.4c-0.2,0.2-0.4,0.3-0.6,0.4c-0.2,0.1-0.5,0.2-0.8,0.2C89.8,46,89.4,45.9,89.2,45.7z"/>
			<path class="st1" d="M95.6,45.1h-1.8l-0.4,0.8h-0.7l1.6-3.6H95l1.6,3.6h-0.7L95.6,45.1z M95.4,44.6L94.7,43L94,44.6H95.4z"/>
			<path class="st1" d="M98.5,45.9c-0.3-0.1-0.5-0.2-0.6-0.3l0.2-0.5c0.1,0.1,0.3,0.2,0.5,0.3c0.2,0.1,0.4,0.1,0.6,0.1
				c0.3,0,0.5,0,0.6-0.1c0.1-0.1,0.2-0.2,0.2-0.3c0-0.1,0-0.2-0.1-0.3c-0.1-0.1-0.2-0.1-0.3-0.2c-0.1,0-0.3-0.1-0.5-0.1
				c-0.3-0.1-0.5-0.1-0.7-0.2c-0.2-0.1-0.3-0.2-0.4-0.3C98,43.8,98,43.6,98,43.3c0-0.2,0.1-0.4,0.2-0.5s0.3-0.3,0.5-0.4
				s0.5-0.1,0.8-0.1c0.2,0,0.4,0,0.7,0.1c0.2,0.1,0.4,0.1,0.6,0.2l-0.2,0.5c-0.2-0.1-0.3-0.2-0.5-0.2c-0.2,0-0.3-0.1-0.5-0.1
				c-0.3,0-0.5,0-0.6,0.1c-0.1,0.1-0.2,0.2-0.2,0.4c0,0.1,0,0.2,0.1,0.3c0.1,0.1,0.2,0.1,0.3,0.2c0.1,0,0.3,0.1,0.5,0.1
				c0.3,0.1,0.5,0.1,0.7,0.2s0.3,0.2,0.4,0.3s0.2,0.3,0.2,0.6c0,0.2-0.1,0.4-0.2,0.5c-0.1,0.2-0.3,0.3-0.5,0.4
				c-0.2,0.1-0.5,0.1-0.8,0.1C99,46,98.8,45.9,98.5,45.9z"/>
			<path class="st1" d="M102.5,42.3h0.7v3.6h-0.7V42.3z"/>
			<path class="st1" d="M108.5,42.3v3.6h-0.6l-2-2.4v2.4h-0.7v-3.6h0.6l2,2.4v-2.4H108.5z"/>
			<path class="st1" d="M111.3,45.7c-0.3-0.2-0.5-0.4-0.7-0.7c-0.2-0.3-0.3-0.6-0.3-1s0.1-0.7,0.3-1c0.2-0.3,0.4-0.5,0.7-0.7
				c0.3-0.2,0.6-0.2,1-0.2s0.7,0.1,1,0.2c0.3,0.2,0.5,0.4,0.7,0.7c0.2,0.3,0.3,0.6,0.3,1s-0.1,0.7-0.3,1c-0.2,0.3-0.4,0.5-0.7,0.7
				c-0.3,0.2-0.6,0.2-1,0.2S111.6,45.9,111.3,45.7z M112.9,45.2c0.2-0.1,0.3-0.3,0.5-0.5c0.1-0.2,0.2-0.4,0.2-0.7s-0.1-0.5-0.2-0.7
				c-0.1-0.2-0.3-0.3-0.5-0.5c-0.2-0.1-0.4-0.2-0.7-0.2c-0.2,0-0.5,0.1-0.7,0.2c-0.2,0.1-0.3,0.3-0.5,0.5c-0.1,0.2-0.2,0.4-0.2,0.7
				s0.1,0.5,0.2,0.7c0.1,0.2,0.3,0.3,0.5,0.5c0.2,0.1,0.4,0.2,0.7,0.2C112.5,45.4,112.7,45.3,112.9,45.2z"/>
			<path class="st1" d="M116.3,45.9c-0.3-0.1-0.5-0.2-0.6-0.3l0.2-0.5c0.1,0.1,0.3,0.2,0.5,0.3c0.2,0.1,0.4,0.1,0.6,0.1
				c0.3,0,0.5,0,0.6-0.1c0.1-0.1,0.2-0.2,0.2-0.3c0-0.1,0-0.2-0.1-0.3c-0.1-0.1-0.2-0.1-0.3-0.2c-0.1,0-0.3-0.1-0.5-0.1
				c-0.3-0.1-0.5-0.1-0.7-0.2c-0.2-0.1-0.3-0.2-0.4-0.3c-0.1-0.1-0.2-0.3-0.2-0.6c0-0.2,0.1-0.4,0.2-0.5s0.3-0.3,0.5-0.4
				c0.2-0.1,0.5-0.1,0.8-0.1c0.2,0,0.4,0,0.7,0.1c0.2,0.1,0.4,0.1,0.6,0.2l-0.2,0.5c-0.2-0.1-0.3-0.2-0.5-0.2
				c-0.2,0-0.3-0.1-0.5-0.1c-0.3,0-0.5,0-0.6,0.1c-0.1,0.1-0.2,0.2-0.2,0.4c0,0.1,0,0.2,0.1,0.3c0.1,0.1,0.2,0.1,0.3,0.2
				c0.1,0,0.3,0.1,0.5,0.1c0.3,0.1,0.5,0.1,0.7,0.2s0.3,0.2,0.4,0.3s0.2,0.3,0.2,0.6c0,0.2-0.1,0.4-0.2,0.5
				c-0.1,0.2-0.3,0.3-0.5,0.4c-0.2,0.1-0.5,0.1-0.8,0.1C116.8,46,116.6,45.9,116.3,45.9z"/>
			<path class="st1" d="M120.3,45.8c-0.1-0.1-0.1-0.2-0.1-0.3c0-0.1,0-0.2,0.1-0.3c0.1-0.1,0.2-0.1,0.3-0.1s0.2,0,0.3,0.1
				c0.1,0.1,0.1,0.2,0.1,0.3c0,0.1,0,0.2-0.1,0.3c-0.1,0.1-0.2,0.1-0.3,0.1C120.5,46,120.4,45.9,120.3,45.8z"/>
			<path class="st1" d="M123.4,45.7c-0.3-0.2-0.5-0.4-0.7-0.7s-0.3-0.6-0.3-1s0.1-0.7,0.3-1c0.2-0.3,0.4-0.5,0.7-0.7s0.6-0.2,1-0.2
				c0.3,0,0.6,0.1,0.8,0.2c0.2,0.1,0.5,0.3,0.6,0.4l-0.4,0.4c-0.3-0.3-0.6-0.4-1-0.4c-0.2,0-0.5,0.1-0.7,0.2
				c-0.2,0.1-0.3,0.3-0.5,0.5c-0.1,0.2-0.2,0.4-0.2,0.7s0.1,0.5,0.2,0.7c0.1,0.2,0.3,0.3,0.5,0.5c0.2,0.1,0.4,0.2,0.7,0.2
				c0.4,0,0.7-0.1,1-0.4l0.4,0.4c-0.2,0.2-0.4,0.3-0.6,0.4c-0.2,0.1-0.5,0.2-0.8,0.2C124,46,123.7,45.9,123.4,45.7z"/>
			<path class="st1" d="M129.8,45.1H128l-0.4,0.8H127l1.6-3.6h0.7l1.6,3.6h-0.7L129.8,45.1z M129.6,44.6l-0.7-1.6l-0.7,1.6H129.6z"
				/>
		</g>
	</g>
</g>
</svg>
